<svg width="200" height="200" viewBox="0 0 200 200" fill="none" xmlns="http://www.w3.org/2000/svg">
<path d="M121.376 178.75H78.626C61.436 178.75 47.5 164.814 47.5 147.624V140C47.5 112.248 69.998 89.75 97.75 89.75H102.25C130.002 89.75 152.5 112.248 152.5 140V147.626C152.5 164.814 138.564 178.75 121.376 178.75Z" fill="#A47659"/>
<path d="M100 106.25C123.472 106.25 142.5 87.2221 142.5 63.75C142.5 40.2779 123.472 21.25 100 21.25C76.5279 21.25 57.5 40.2779 57.5 63.75C57.5 87.2221 76.5279 106.25 100 106.25Z" fill="#A47659"/>
<path d="M139.586 169.104C155.865 169.104 169.062 155.907 169.062 139.628C169.062 123.349 155.865 110.152 139.586 110.152C123.307 110.152 110.11 123.349 110.11 139.628C110.11 155.907 123.307 169.104 139.586 169.104Z" fill="#666766" stroke="#666766" stroke-width="8" stroke-miterlimit="10"/>
<path d="M140.334 124.026L144.632 132.734C144.692 132.855 144.78 132.96 144.89 133.039C144.999 133.118 145.126 133.17 145.26 133.19L154.87 134.586C155.554 134.686 155.828 135.526 155.332 136.01L148.378 142.788C148.281 142.882 148.209 142.999 148.167 143.127C148.126 143.256 148.116 143.392 148.138 143.526L149.78 153.098C149.806 153.251 149.789 153.409 149.731 153.553C149.672 153.697 149.575 153.822 149.449 153.914C149.323 154.006 149.174 154.06 149.018 154.071C148.863 154.083 148.708 154.05 148.57 153.978L139.974 149.458C139.854 149.395 139.721 149.362 139.586 149.362C139.451 149.362 139.318 149.395 139.198 149.458L130.602 153.978C130.464 154.05 130.309 154.083 130.154 154.071C129.998 154.06 129.849 154.006 129.723 153.914C129.597 153.822 129.5 153.697 129.441 153.553C129.382 153.409 129.366 153.251 129.392 153.098L131.034 143.526C131.056 143.392 131.046 143.256 131.005 143.127C130.963 142.999 130.891 142.882 130.794 142.788L123.84 136.01C123.728 135.901 123.649 135.763 123.611 135.612C123.574 135.461 123.579 135.302 123.627 135.154C123.676 135.006 123.764 134.874 123.884 134.773C124.003 134.673 124.148 134.608 124.302 134.586L133.912 133.19C134.046 133.17 134.173 133.118 134.282 133.039C134.391 132.96 134.48 132.855 134.54 132.734L138.838 124.026C138.907 123.886 139.013 123.769 139.146 123.686C139.278 123.604 139.43 123.561 139.586 123.561C139.742 123.561 139.894 123.604 140.026 123.686C140.159 123.769 140.265 123.886 140.334 124.026Z" fill="#A47659"/>
</svg>
