<svg width="10" height="10" viewBox="0 0 10 10" fill="none" xmlns="http://www.w3.org/2000/svg">
<path d="M0.5 3.5V6.5C0.5 7.914 0.5 8.6215 0.9395 9.0605C1.3785 9.5 2.086 9.5 3.5 9.5H6.5C7.914 9.5 8.6215 9.5 9.0605 9.0605C9.5 8.6215 9.5 7.914 9.5 6.5V3.5C9.5 2.086 9.5 1.3785 9.0605 0.9395C8.6215 0.5 7.914 0.5 6.5 0.5H3.5" stroke="#e79204" stroke-width="0.75" stroke-linecap="round"/>
<path d="M6.5002 6.5002V7.0002H7.0002V6.5002H6.5002ZM2.8537 2.1467C2.7594 2.05562 2.6331 2.00523 2.502 2.00637C2.3709 2.00751 2.2455 2.06009 2.15279 2.15279C2.06009 2.2455 2.00751 2.3709 2.00637 2.502C2.00523 2.6331 2.05562 2.7594 2.1467 2.8537L2.8537 2.1467ZM6.0002 3.0002V6.5002H7.0002V3.0002H6.0002ZM6.5002 6.0002H3.0002V7.0002H6.5002V6.0002ZM6.8537 6.1467L2.8537 2.1467L2.1467 2.8537L6.1467 6.8537L6.8537 6.1467Z" fill="#e79204"/>
</svg>
