<svg width="200" height="200" viewBox="0 0 200 200" fill="none" xmlns="http://www.w3.org/2000/svg">
<g clip-path="url(#clip0_443_17)">
<path d="M23.0783 188.605C26.2187 188.605 29.3591 187.412 31.5332 185.025L74.2905 142.779C79.1218 138.006 79.1218 130.607 74.2905 125.833C69.4591 121.06 61.9706 121.06 57.1392 125.833L14.6235 168.317C9.79217 173.091 9.79217 180.49 14.6235 185.264C17.0392 187.412 19.938 188.605 23.0783 188.605Z" fill="#666766"/>
<path d="M164.027 130.233C189.97 104.601 189.969 63.0421 164.025 37.4101C138.082 11.7781 96.0205 11.7788 70.0781 37.4117C44.1357 63.0446 44.1364 104.603 70.0797 130.235C96.023 155.867 138.085 155.866 164.027 130.233Z" fill="#E79204"/>
<path d="M63.1784 137.044C33.4657 107.687 33.4657 59.9518 63.1784 30.8333C92.8911 1.47613 141.204 1.47613 170.676 30.8333C200.388 60.1905 200.388 107.926 170.676 137.044C155.94 151.604 136.373 159.003 116.806 159.003C97.2393 159.003 78.1555 151.604 63.1784 137.044ZM76.9477 44.1992C66.3188 54.701 60.2796 68.7829 60.2796 83.8195C60.2796 98.8561 66.0772 112.938 76.9477 123.44C99.1718 145.398 135.165 145.398 157.148 123.44C179.372 101.482 179.372 65.9188 157.148 44.1992C146.036 33.2201 131.542 27.7305 117.048 27.7305C102.554 27.7305 88.0598 33.2201 76.9477 44.1992Z" fill="#666766"/>
</g>
<defs>
<clipPath id="clip0_443_17">
<rect width="200" height="200" fill="white"/>
</clipPath>
</defs>
</svg>
