<svg width="148" height="148" viewBox="0 0 148 148" fill="none" xmlns="http://www.w3.org/2000/svg">
<path d="M74 144C112.66 144 144 112.66 144 74C144 35.3401 112.66 4 74 4C35.3401 4 4 35.3401 4 74C4 112.66 35.3401 144 74 144Z" stroke="#4F4F4F" stroke-width="7" stroke-miterlimit="10" stroke-linecap="round" stroke-linejoin="round"/>
<path d="M113.8 107.6C107.4 87.9997 91.9999 74.1997 73.9999 74.1997C56.1999 74.1997 40.7999 87.7997 34.3999 107" stroke="#4F4F4F" stroke-width="7" stroke-miterlimit="10" stroke-linecap="round" stroke-linejoin="round"/>
<path d="M74 73.9999C86.592 73.9999 96.8 63.792 96.8 51.1999C96.8 38.6078 86.592 28.3999 74 28.3999C61.4079 28.3999 51.2 38.6078 51.2 51.1999C51.2 63.792 61.4079 73.9999 74 73.9999Z" stroke="#4F4F4F" stroke-width="7" stroke-miterlimit="10" stroke-linecap="round" stroke-linejoin="round"/>
</svg>
