<svg width="12" height="12" viewBox="0 0 12 12" fill="none" xmlns="http://www.w3.org/2000/svg">
<path d="M6.86632 1H6.82039C6.7714 1.00612 6.72853 1.01684 6.69179 1.03215C6.65505 1.04746 6.61371 1.07042 6.56778 1.10104C6.52185 1.13166 6.48052 1.16841 6.44378 1.21127C6.43765 1.2174 6.43306 1.22352 6.43 1.22964C6.42693 1.23577 6.42234 1.24189 6.41622 1.24802L3.11852 5.60208C2.97767 5.79804 2.96236 6.00319 3.07259 6.21753C3.09096 6.25427 3.11393 6.28948 3.14148 6.32317C3.16904 6.35685 3.19966 6.38747 3.23334 6.41502C3.26702 6.44258 3.30377 6.46555 3.34357 6.48392C3.38338 6.50229 3.42471 6.51607 3.46758 6.52525C3.51045 6.53444 3.55331 6.53903 3.59618 6.53903L5.29555 6.54822L4.75359 9.69894C4.72909 9.83367 4.75053 9.96074 4.81789 10.0802C4.88525 10.1996 4.98017 10.2868 5.10265 10.3419C5.13939 10.3603 5.17767 10.3726 5.21747 10.3787C5.25728 10.3848 5.29861 10.3879 5.34148 10.3879C5.51907 10.3879 5.66911 10.3083 5.79158 10.149L9.08928 5.42755C9.23013 5.23159 9.24544 5.02644 9.13521 4.8121C9.02498 4.59777 8.85045 4.4906 8.61162 4.4906H6.91225L7.44503 1.72568C7.45115 1.70118 7.45574 1.67822 7.45881 1.65678C7.46187 1.63535 7.4634 1.61239 7.4634 1.58789C7.4634 1.53278 7.45574 1.48072 7.44043 1.43173C7.42512 1.38274 7.40522 1.33681 7.38073 1.29395C7.35623 1.25108 7.32714 1.21127 7.29346 1.17453C7.25978 1.13779 7.22151 1.10717 7.17864 1.08267C7.13577 1.05818 7.08984 1.03827 7.04085 1.02296C6.99186 1.00765 6.94287 1 6.89388 1H6.86632Z" fill="#BAC914"/>
</svg>
