<svg width="13" height="13" viewBox="0 0 13 13" fill="none" xmlns="http://www.w3.org/2000/svg">
<path d="M6.33984 0.703125C3.09821 0.703125 0.460938 3.3404 0.460938 6.58203C0.460938 9.82366 3.09821 12.4609 6.33984 12.4609C9.58147 12.4609 12.2188 9.82366 12.2188 6.58203C12.2188 3.3404 9.58147 0.703125 6.33984 0.703125ZM6.33984 11.2852C3.74666 11.2852 1.63672 9.17522 1.63672 6.58203C1.63672 3.98885 3.74666 1.87891 6.33984 1.87891C8.93303 1.87891 11.043 3.98885 11.043 6.58203C11.043 9.17522 8.93303 11.2852 6.33984 11.2852Z" fill="#A47659"/>
<path d="M6.92773 3.64258H5.75195V6.82542L7.68788 8.76134L8.51915 7.93006L6.92773 6.33864V3.64258Z" fill="#A47659"/>
</svg>
