<svg width="13" height="9" viewBox="0 0 13 9" fill="none" xmlns="http://www.w3.org/2000/svg">
<path d="M8.68978 5.02896L6.24023 7.47851L3.79069 5.02896H5.26042V3.06933H7.22005V5.02896H8.68978ZM9.84106 3.57393C9.6755 2.74087 9.22608 1.99104 8.56943 1.45232C7.91278 0.913606 7.08959 0.619365 6.24023 0.619782C4.8244 0.619782 3.59473 1.42323 2.98234 2.59411C2.26187 2.67306 1.59592 3.01523 1.11221 3.55499C0.628512 4.09475 0.36112 4.79409 0.361328 5.51887C0.361328 6.29846 0.67102 7.04612 1.22227 7.59738C1.77353 8.14863 2.52119 8.45832 3.30078 8.45832H9.6696C9.99127 8.45832 10.3098 8.39496 10.607 8.27186C10.9042 8.14876 11.1742 7.96833 11.4017 7.74087C11.6291 7.51341 11.8096 7.24337 11.9327 6.94618C12.0558 6.64899 12.1191 6.33046 12.1191 6.00878C12.1191 4.71542 11.1148 3.66701 9.84106 3.57393Z" fill="#9E9E9E"/>
</svg>
