<svg width="160" height="160" viewBox="0 0 160 160" fill="none" xmlns="http://www.w3.org/2000/svg">
<path d="M84 9V160C125.6 160 159.4 126.2 159.4 84.6C159.4 43 125.8 9 84 9Z" fill="#BAC914"/>
<path d="M75.9999 0C48.1999 0 23.7999 15.2 10.7999 37.6L75.9999 75.2V0Z" fill="#BAC914"/>
<path d="M76 160V84.2001L10.8 46.6001C4.39997 57.8001 0.599976 70.6001 0.599976 84.6001C0.599976 126.2 34.2 160 76 160Z" fill="#BAC914"/>
<path d="M76 160V84.2001L10.8 46.6001C4.39997 57.8001 0.599976 70.6001 0.599976 84.6001C0.599976 126.2 34.2 160 76 160Z" fill="#BAC914"/>
</svg>
