<svg width="200" height="200" viewBox="0 0 200 200" fill="none" xmlns="http://www.w3.org/2000/svg">
<path d="M181.375 93.297C181.732 92.3943 181.914 91.4323 181.914 90.4617C181.914 85.3181 176.993 81.44 170.467 81.44H168.115C168.212 80.9837 168.267 80.5129 168.267 80.0276V72.1523C168.263 67.8794 164.387 64.6572 159.245 64.6572C154.101 64.6572 150.223 67.8807 150.223 72.1548V80.0289C150.223 80.5142 150.28 80.985 150.376 81.4413H147.884C141.357 81.4413 136.436 85.3194 136.436 90.4629C136.436 91.4624 136.627 92.4132 136.975 93.2984C131.529 94.1757 127.354 98.8944 127.354 104.585V171.242C127.354 177.553 132.489 182.69 138.8 182.69H179.555C185.867 182.69 191.003 177.553 191.003 171.242V104.585C190.998 98.8944 186.822 94.1757 181.375 93.297Z" fill="#666766"/>
<path d="M147.881 94.0993H170.467C173.8 94.0993 176.53 92.4626 176.53 90.4613C176.53 88.4613 173.802 86.8247 170.467 86.8232H147.881C144.546 86.8232 141.816 88.46 141.816 90.4613C141.816 92.4613 144.546 94.0993 147.881 94.0993Z" fill="#E79204"/>
<path d="M179.551 98.5225H138.797C137.189 98.5273 135.651 99.1678 134.513 100.304C133.378 101.44 132.738 102.98 132.733 104.587V171.244C132.738 172.849 133.378 174.39 134.515 175.525C135.651 176.662 137.189 177.302 138.797 177.308H163.834V152.427C163.834 151.092 164.927 150.001 166.259 150.001H175.658C176.992 150.001 178.083 151.092 178.083 152.427V175.731C178.083 175.781 178.072 175.827 178.07 175.875V177.304H179.551C181.159 177.299 182.699 176.659 183.834 175.522C184.97 174.386 185.611 172.846 185.616 171.239V104.585C185.613 101.25 182.886 98.5225 179.551 98.5225ZM154.854 161.219C154.852 161.862 154.597 162.478 154.142 162.932C153.688 163.386 153.072 163.642 152.429 163.643H143.03C142.387 163.642 141.771 163.386 141.317 162.932C140.863 162.478 140.607 161.862 140.605 161.219V151.821C140.605 150.486 141.696 149.396 143.03 149.396H152.428C153.762 149.396 154.852 150.486 154.852 151.821L154.854 161.219ZM154.854 140.755C154.852 141.398 154.597 142.014 154.142 142.468C153.688 142.922 153.072 143.178 152.429 143.181H143.03C142.387 143.178 141.771 142.922 141.317 142.468C140.863 142.014 140.607 141.398 140.605 140.755V131.357C140.605 130.022 141.696 128.933 143.03 128.933H152.428C153.762 128.933 154.852 130.022 154.852 131.357L154.854 140.755ZM154.854 119.533C154.852 120.176 154.597 120.792 154.142 121.246C153.688 121.701 153.072 121.957 152.429 121.958H143.03C142.387 121.957 141.771 121.701 141.317 121.246C140.863 120.792 140.607 120.176 140.605 119.533V110.136C140.605 108.8 141.696 107.709 143.03 107.709H152.428C153.762 107.709 154.852 108.8 154.852 110.136L154.854 119.533ZM178.083 140.755C178.081 141.398 177.826 142.014 177.371 142.468C176.916 142.922 176.3 143.178 175.658 143.181H166.259C165.618 143.18 165.002 142.924 164.546 142.47C164.092 142.014 163.836 141.398 163.834 140.755V131.357C163.834 130.022 164.927 128.933 166.259 128.933H175.658C176.992 128.933 178.083 130.022 178.083 131.357V140.755ZM178.083 119.533C178.081 120.176 177.826 120.792 177.371 121.246C176.916 121.701 176.3 121.957 175.658 121.958H166.259C165.618 121.957 165.002 121.701 164.548 121.246C164.092 120.792 163.836 120.176 163.834 119.533V110.136C163.834 108.8 164.927 107.709 166.259 107.709H175.658C176.992 107.709 178.083 108.8 178.083 110.136V119.533Z" fill="#E79204"/>
<path d="M159.241 82.1423C161.244 82.1423 162.88 81.1915 162.88 80.0282V72.1541C162.88 70.9921 161.244 70.04 159.241 70.04C157.242 70.04 155.604 70.9909 155.604 72.1541V80.0282C155.604 81.1901 157.241 82.1423 159.241 82.1423Z" fill="#E79204"/>
<path d="M63.0221 91.6964C63.3785 90.7937 63.5613 89.8317 63.5611 88.8611C63.5611 83.7176 58.6404 79.8394 52.1145 79.8394H49.7617C49.8588 79.3831 49.914 78.9123 49.914 78.4271V70.5517C49.9113 66.2789 46.0333 63.0566 40.8924 63.0566C35.7487 63.0566 31.8707 66.2801 31.8707 70.5542V78.4283C31.8707 78.9136 31.9272 79.3844 32.0241 79.8407H29.531C23.0052 79.8407 18.0832 83.7188 18.0832 88.8624C18.0832 89.8618 18.2734 90.8126 18.6223 91.6978C13.177 92.5751 9 97.2938 9 102.984V169.641C9 175.952 14.1357 181.089 20.4478 181.089H61.2017C67.5152 181.089 72.6496 175.952 72.6496 169.641V102.984C72.6456 97.2938 68.4698 92.5751 63.0221 91.6964Z" fill="#666766"/>
<path d="M29.5291 92.4997H52.1153C55.449 92.4997 58.1781 90.863 58.1781 88.8617C58.1781 86.8617 55.4503 85.2251 52.1153 85.2236H29.5291C26.1941 85.2236 23.4648 86.8604 23.4648 88.8617C23.4648 90.8617 26.1941 92.4997 29.5291 92.4997Z" fill="#E79204"/>
<path d="M61.199 96.9219H20.4438C18.8371 96.9267 17.2976 97.5672 16.1616 98.7036C15.0256 99.8397 14.3853 101.379 14.3809 102.986V169.643C14.3857 171.249 15.026 172.789 16.1619 173.924C17.2979 175.062 18.8371 175.701 20.4438 175.708H45.4823V150.827C45.4823 149.491 46.5736 148.4 47.9073 148.4H57.3052C58.6391 148.4 59.7302 149.491 59.7302 150.827V174.131C59.7302 174.18 59.7196 174.227 59.7171 174.275V175.703H61.199C62.8059 175.698 64.3456 175.058 65.4818 173.921C66.6179 172.786 67.2585 171.246 67.2633 169.638V102.985C67.2606 99.6497 64.5327 96.9219 61.199 96.9219ZM36.5015 159.618C36.4998 160.261 36.2437 160.877 35.7893 161.331C35.3349 161.785 34.7192 162.041 34.0766 162.043H24.6772C24.0347 162.041 23.4188 161.785 22.9644 161.331C22.51 160.877 22.254 160.261 22.2524 159.618V150.22C22.2524 148.885 23.3435 147.796 24.6772 147.796H34.0753C35.409 147.796 36.5001 148.885 36.5001 150.22L36.5015 159.618ZM36.5015 139.155C36.4998 139.797 36.2437 140.413 35.7893 140.867C35.3349 141.322 34.7192 141.578 34.0766 141.581H24.6772C24.0347 141.578 23.4188 141.322 22.9644 140.867C22.51 140.413 22.254 139.797 22.2524 139.155V129.757C22.2524 128.421 23.3435 127.332 24.6772 127.332H34.0753C35.409 127.332 36.5001 128.421 36.5001 129.757L36.5015 139.155ZM36.5015 117.933C36.4998 118.576 36.2437 119.191 35.7893 119.646C35.3349 120.1 34.7192 120.356 34.0766 120.358H24.6772C24.0347 120.356 23.4188 120.1 22.9644 119.646C22.51 119.191 22.254 118.576 22.2524 117.933V108.535C22.2524 107.2 23.3435 106.109 24.6772 106.109H34.0753C35.409 106.109 36.5001 107.2 36.5001 108.535L36.5015 117.933ZM59.7302 139.155C59.7284 139.797 59.4724 140.413 59.018 140.867C58.5636 141.322 57.9479 141.578 57.3052 141.581H47.9073C47.2645 141.579 46.6486 141.323 46.1942 140.869C45.7397 140.413 45.4838 139.797 45.4823 139.155V129.757C45.4823 128.421 46.5736 127.332 47.9073 127.332H57.3052C58.6391 127.332 59.7302 128.421 59.7302 129.757V139.155ZM59.7302 117.933C59.7284 118.576 59.4724 119.191 59.018 119.646C58.5636 120.1 57.9479 120.356 57.3052 120.358H47.9073C47.2647 120.356 46.6489 120.1 46.1945 119.646C45.7402 119.191 45.4841 118.576 45.4823 117.933V108.535C45.4823 107.2 46.5736 106.109 47.9073 106.109H57.3052C58.6391 106.109 59.7302 107.2 59.7302 108.535V117.933Z" fill="#E79204"/>
<path d="M40.89 80.5418C42.8913 80.5418 44.528 79.5909 44.528 78.4276V70.5535C44.528 69.3915 42.8913 68.4395 40.89 68.4395C38.89 68.4395 37.252 69.3903 37.252 70.5535V78.4276C37.252 79.5895 38.8887 80.5418 40.89 80.5418Z" fill="#E79204"/>
<path d="M134.111 53.0076C134.659 51.6203 134.939 50.1422 134.939 48.6507C134.939 40.7471 127.379 34.7883 117.351 34.7883H113.735C113.885 34.087 113.97 33.3636 113.97 32.618V20.5168C113.965 13.9513 108.006 9 100.107 9C92.2027 9 86.2443 13.9534 86.2443 20.5208V32.6199C86.2443 33.3655 86.331 34.089 86.48 34.7902H82.6493C72.6217 34.7902 65.0586 40.7492 65.0586 48.6527C65.0586 50.1883 65.3508 51.6493 65.8869 53.0095C57.5199 54.3578 51.1016 61.6083 51.1016 70.3523V172.776C51.1016 182.475 58.9929 190.366 68.692 190.366H131.313C141.015 190.366 148.905 182.475 148.905 172.776V70.3523C148.898 61.6083 142.482 54.3578 134.111 53.0076Z" fill="#666766"/>
<path d="M82.6453 54.2428H117.351C122.474 54.2428 126.667 51.7278 126.667 48.6527C126.667 45.5796 122.475 43.0646 117.351 43.0625H82.6453C77.5207 43.0625 73.3271 45.5775 73.3271 48.6527C73.3271 51.7259 77.5207 54.2428 82.6453 54.2428Z" fill="#E79204"/>
<path d="M131.311 61.0352H68.6872C66.2184 61.0427 63.8528 62.0268 62.1073 63.7728C60.3616 65.5188 59.378 67.8845 59.3711 70.3535V172.777C59.3785 175.245 60.3624 177.612 62.1077 179.357C63.8533 181.103 66.2186 182.087 68.6872 182.095H107.161V143.863C107.161 141.812 108.837 140.134 110.888 140.134H125.328C127.377 140.134 129.055 141.812 129.055 143.863V179.674C129.055 179.75 129.039 179.821 129.034 179.894V182.089H131.311C133.781 182.082 136.146 181.097 137.893 179.352C139.637 177.606 140.621 175.24 140.629 172.771V70.3514C140.626 65.2267 136.434 61.0352 131.311 61.0352ZM93.3618 157.372C93.3586 158.361 92.9652 159.306 92.2663 160.005C91.5686 160.704 90.6224 161.097 89.635 161.099H75.1922C74.2049 161.097 73.2586 160.704 72.5605 160.005C71.8622 159.306 71.4688 158.361 71.4662 157.372V142.932C71.4662 140.881 73.1428 139.207 75.1922 139.207H89.6331C91.6825 139.207 93.3586 140.881 93.3586 142.932L93.3618 157.372ZM93.3618 125.931C93.3586 126.917 92.9652 127.864 92.2663 128.562C91.5686 129.26 90.6224 129.654 89.635 129.656H75.1922C74.2049 129.654 73.2586 129.26 72.5605 128.562C71.8622 127.864 71.4688 126.917 71.4662 125.931V111.489C71.4662 109.438 73.1428 107.763 75.1922 107.763H89.6331C91.6825 107.763 93.3586 109.438 93.3586 111.489L93.3618 125.931ZM93.3618 93.3205C93.3586 94.3079 92.9652 95.2541 92.2663 95.9522C91.5686 96.6505 90.6224 97.0439 89.635 97.0465H75.1922C74.2049 97.0439 73.2586 96.6505 72.5605 95.9522C71.8622 95.2541 71.4688 94.3079 71.4662 93.3205V78.8796C71.4662 76.8281 73.1428 75.1515 75.1922 75.1515H89.6331C91.6825 75.1515 93.3586 76.8281 93.3586 78.8796L93.3618 93.3205ZM129.055 125.931C129.051 126.917 128.658 127.864 127.961 128.562C127.262 129.26 126.315 129.654 125.328 129.656H110.888C109.899 129.654 108.954 129.26 108.255 128.563C107.556 127.864 107.163 126.917 107.161 125.931V111.489C107.161 109.438 108.837 107.763 110.888 107.763H125.328C127.377 107.763 129.055 109.438 129.055 111.489V125.931ZM129.055 93.3205C129.051 94.3079 128.658 95.2541 127.961 95.9522C127.262 96.6505 126.315 97.0439 125.328 97.0465H110.888C109.899 97.0439 108.954 96.6505 108.255 95.9522C107.558 95.2541 107.164 94.3079 107.161 93.3205V78.8796C107.161 76.8281 108.837 75.1515 110.888 75.1515H125.328C127.377 75.1515 129.055 76.8281 129.055 78.8796V93.3205Z" fill="#E79204"/>
<path d="M100.105 35.8676C103.181 35.8676 105.695 34.4066 105.695 32.6192V20.5201C105.695 18.7346 103.181 17.2715 100.105 17.2715C97.0314 17.2715 94.5156 18.7325 94.5156 20.5201V32.6192C94.5156 34.4047 97.0298 35.8676 100.105 35.8676Z" fill="#E79204"/>
</svg>
