<svg width="7" height="5" viewBox="0 0 7 5" fill="none" xmlns="http://www.w3.org/2000/svg">
<path d="M0.0909424 2.5C0.0909424 2.5 1.36935 0 3.50003 0C5.63072 0 6.90912 2.5 6.90912 2.5C6.90912 2.5 5.63072 5 3.50003 5C1.36935 5 0.0909424 2.5 0.0909424 2.5ZM3.50003 4.09091C3.8956 4.09091 4.27496 3.9233 4.55467 3.62494C4.83437 3.32659 4.99151 2.92194 4.99151 2.5C4.99151 2.07806 4.83437 1.67341 4.55467 1.37506C4.27496 1.0767 3.8956 0.909091 3.50003 0.909091C3.10447 0.909091 2.72511 1.0767 2.4454 1.37506C2.16569 1.67341 2.00856 2.07806 2.00856 2.5C2.00856 2.92194 2.16569 3.32659 2.4454 3.62494C2.72511 3.9233 3.10447 4.09091 3.50003 4.09091V4.09091Z" fill="#9E9E9E"/>
<path d="M4.63637 2.57565C4.63637 2.89712 4.51665 3.20543 4.30354 3.43275C4.09043 3.66006 3.80139 3.78777 3.50001 3.78777C3.19863 3.78777 2.90959 3.66006 2.69648 3.43275C2.48337 3.20543 2.36365 2.89712 2.36365 2.57565C2.36365 2.25417 2.48337 1.94586 2.69648 1.71855C2.90959 1.49123 3.19863 1.36353 3.50001 1.36353C3.80139 1.36353 4.09043 1.49123 4.30354 1.71855C4.51665 1.94586 4.63637 2.25417 4.63637 2.57565V2.57565Z" fill="#9E9E9E"/>
</svg>
