<svg width="200" height="200" viewBox="0 0 200 200" fill="none" xmlns="http://www.w3.org/2000/svg">
<path d="M43.62 18.8198C40.8586 18.8198 38.62 21.0584 38.62 23.8198V176.18C38.62 178.941 40.8586 181.18 43.62 181.18H156.38C159.141 181.18 161.38 178.941 161.38 176.18V58.3769C161.38 57.0508 160.853 55.779 159.916 54.8414L125.358 20.2843C124.421 19.3466 123.149 18.8198 121.823 18.8198H43.62Z" fill="#A47659"/>
<path d="M161.074 56.074L124 19V56.074H161.074Z" fill="#86776B"/>
<path d="M81.726 81.1118H138.25V88.6678H81.726V81.1118Z" fill="#828291"/>
<path d="M61.278 100H138.25V107.556H61.278V100Z" fill="#828291"/>
<path d="M61.278 118.888H138.25V126.444H61.278V118.888Z" fill="#828291"/>
<path d="M61.278 137.778H138.25V145.334H61.278V137.778Z" fill="#828291"/>
<path d="M61.278 156.666H138.25V164.222H61.278V156.666Z" fill="#828291"/>
</svg>
