<svg width="1069" height="1081" viewBox="0 0 1069 1081" fill="none" xmlns="http://www.w3.org/2000/svg">
<path d="M768.41 23.9056C748.276 35.9056 730.943 46.4389 730.01 47.2389C728.543 48.5723 728.41 124.039 729.076 481.772C729.876 867.372 729.876 915.639 728.01 924.039C722.81 948.439 705.343 968.172 682.676 975.506C670.676 979.506 650.81 979.372 639.076 975.372C617.076 967.772 601.743 950.439 597.743 928.439C595.476 916.572 595.21 264.039 597.476 257.772C600.943 247.906 612.41 240.972 622.81 242.572C630.143 243.639 638.41 250.839 640.41 257.639C641.21 260.839 641.743 308.572 641.743 391.906C641.743 476.706 642.276 522.972 643.076 526.172C646.143 537.106 656.543 544.572 668.943 544.572C681.21 544.572 688.943 539.772 693.876 529.239C696.276 524.172 696.41 516.839 696.41 365.106V206.306L659.876 184.172L623.343 162.172L613.476 167.772C608.143 170.839 588.276 182.572 569.476 193.772L535.076 214.306V573.906C535.076 967.239 535.61 938.306 527.743 953.906C517.076 974.839 491.076 988.706 465.61 986.706C434.676 984.439 409.21 963.106 403.21 934.172C401.21 924.572 401.076 480.839 403.076 473.639C408.276 454.839 432.41 450.439 442.81 466.306L446.41 471.772L446.676 596.839C447.076 719.772 447.076 722.039 449.743 727.239C451.21 730.172 454.943 734.172 458.01 736.172C462.81 739.506 464.81 739.906 473.876 739.906C483.21 739.906 484.81 739.506 490.01 735.906C493.076 733.639 496.943 729.506 498.41 726.572C501.076 721.372 501.076 718.172 501.476 569.906C501.61 486.706 501.343 417.906 500.81 417.106C499.476 415.239 430.943 376.172 428.943 376.172C428.276 376.172 408.276 387.772 384.676 401.906L341.743 427.639V647.772C341.743 779.506 341.21 872.306 340.41 878.972C338.943 892.572 334.676 902.306 326.543 910.972C307.61 931.239 273.476 935.639 246.543 921.639C236.143 916.172 222.143 902.172 216.81 891.772C208.276 875.772 208.41 876.972 208.41 779.906V691.906L211.476 686.572C220.01 671.506 239.476 671.106 249.343 685.772C252.81 690.839 252.543 682.706 252.41 801.506C252.41 832.306 252.943 853.506 253.743 857.372C256.81 870.972 267.476 878.706 281.876 877.639C290.943 876.972 297.743 872.439 302.676 863.772L305.743 858.572V749.239L305.61 639.906L287.476 629.906C277.343 624.439 259.876 614.572 248.543 608.172C230.943 598.306 227.343 596.706 224.81 597.772C221.61 599.239 166.41 633.506 152.143 642.839L143.076 648.839V777.239V905.772L155.476 919.506C198.276 966.706 254.81 1008.31 312.41 1034.57C364.943 1058.71 418.543 1073.11 479.076 1079.37C501.876 1081.77 557.076 1081.37 581.476 1078.71C655.476 1070.71 724.41 1048.17 788.41 1011.11C933.21 927.372 1033.34 784.972 1061.08 623.239C1074.68 543.639 1068.54 454.572 1044.41 379.772C1020.81 306.972 984.41 242.972 937.076 190.572L931.076 184.039V223.639V263.372L938.543 276.039C978.943 344.839 1002.01 434.306 998.41 509.906C996.81 546.572 991.743 569.639 980.676 591.906C960.01 633.506 924.943 653.106 878.41 648.572C833.876 644.439 802.276 618.839 789.61 576.572C786.543 566.572 786.543 566.039 785.61 441.239C784.276 242.839 784.276 105.772 785.743 97.7723C788.143 85.1056 796.01 77.9056 807.743 77.9056C818.943 77.9056 827.61 85.3723 829.876 96.7056C830.41 99.9056 830.943 157.772 831.076 225.239V348.039L835.476 355.239C842.943 367.906 858.41 374.706 872.41 371.506C886.01 368.306 895.343 358.839 897.743 345.639C898.543 341.239 898.81 311.106 898.41 267.906C898.143 228.972 897.743 165.372 897.743 126.572V55.9056L892.01 52.7056C884.81 48.5723 835.076 18.3056 820.41 9.10561C814.143 5.10561 808.143 1.90561 807.076 2.03894C806.01 2.03894 788.543 11.9056 768.41 23.9056Z" fill="white"/>
<path d="M135.572 567.535C31.9686 646.035 -28.058 592.522 13.0761 410.535C46.0761 264.535 144.677 149.365 229.076 95.0351C291.076 49.0351 412.759 -1.18082 513.119 0.535026C584.076 -2.46487 636.576 7.29042 698.076 26.2904V95.0351C635.076 75.5351 601.841 68.052 513.119 66.5352C424.397 65.0183 329.671 94.3289 263.576 153.535C205.576 205.49 164.673 258.577 155.576 276.535C117.076 352.535 153.973 461.535 278.013 344.535L385.076 249.035L341.076 204.535L517.473 164.035L467.576 337.535L430.076 296.035L135.572 567.535Z" fill="#997D66"/>
</svg>
