<?xml version="1.0" encoding="UTF-8"?>
<svg width="24px" height="24px" viewBox="0 0 24 24" version="1.1" xmlns="http://www.w3.org/2000/svg">
    <g stroke="none" stroke-width="1" fill="none" fill-rule="evenodd">
        <path d="M12,2.163c3.204,0 3.584,0.012 4.85,0.07 1.17,0.053 1.805,0.249 2.227,0.415 0.562,0.217 0.96,0.477 1.382,0.896 0.419,0.42 0.679,0.819 0.896,1.381 0.164,0.422 0.36,1.057 0.413,2.227 0.058,1.266 0.07,1.646 0.07,4.85 0,3.204 -0.012,3.584 -0.07,4.85 -0.053,1.17 -0.249,1.805 -0.415,2.227 -0.217,0.562 -0.477,0.96 -0.896,1.382 -0.42,0.419 -0.819,0.679 -1.381,0.896 -0.422,0.164 -1.057,0.36 -2.227,0.413 -1.266,0.058 -1.646,0.07 -4.85,0.07 -3.204,0 -3.584,-0.012 -4.85,-0.07 -1.17,-0.053 -1.805,-0.249 -2.227,-0.415 -0.562,-0.217 -0.96,-0.477 -1.382,-0.896 -0.419,-0.42 -0.679,-0.819 -0.896,-1.381 -0.164,-0.422 -0.36,-1.057 -0.413,-2.227 -0.058,-1.266 -0.07,-1.646 -0.07,-4.85 0,-3.204 0.012,-3.584 0.07,-4.85 0.053,-1.17 0.249,-1.805 0.415,-2.227 0.217,-0.562 0.477,-0.96 0.896,-1.382 0.42,-0.419 0.819,-0.679 1.381,-0.896 0.422,-0.164 1.057,-0.36 2.227,-0.413 1.266,-0.058 1.646,-0.07 4.85,-0.07zM12,0C8.741,0 8.333,0.014 7.053,0.072 5.775,0.132 4.905,0.333 4.14,0.63 3.354,0.935 2.67,1.34 1.988,2.022 1.306,2.704 0.901,3.388 0.596,4.174 0.299,4.939 0.098,5.809 0.038,7.087 0.014,8.367 0,8.775 0,12 0,15.259 0.014,15.667 0.038,16.947 0.098,18.225 0.299,19.095 0.596,19.86 0.901,20.646 1.306,21.33 1.988,22.012 2.67,22.694 3.354,23.099 4.14,23.404 4.905,23.701 5.775,23.902 7.053,23.962 8.333,23.986 8.741,24 12,24 15.259,24 15.667,23.986 16.947,23.962 18.225,23.902 19.095,23.701 19.86,23.404 20.646,23.099 21.33,22.694 22.012,22.012 22.694,21.33 23.099,20.646 23.404,19.86 23.701,19.095 23.902,18.225 23.962,16.947 23.986,15.667 24,15.259 24,12 24,8.741 23.986,8.333 23.962,7.053 23.902,5.775 23.701,4.905 23.404,4.14 23.099,3.354 22.694,2.67 22.012,1.988 21.33,1.306 20.646,0.901 19.86,0.596 19.095,0.299 18.225,0.098 16.947,0.038 15.667,0.014 15.259,0 12,0z" fill="#FFFFFF"/>
        <path d="M12,5.838c-3.403,0 -6.162,2.759 -6.162,6.162 0,3.403 2.759,6.162 6.162,6.162 3.403,0 6.162,-2.759 6.162,-6.162 0,-3.403 -2.759,-6.162 -6.162,-6.162zM12,16c-2.209,0 -4,-1.791 -4,-4 0,-2.209 1.791,-4 4,-4 2.209,0 4,1.791 4,4 0,2.209 -1.791,4 -4,4z" fill="#FFFFFF"/>
        <circle fill="#FFFFFF" cx="18.406" cy="5.594" r="1.44"/>
    </g>
</svg> 