<svg width="200" height="200" viewBox="0 0 200 200" fill="none" xmlns="http://www.w3.org/2000/svg">
<g clip-path="url(#clip0_65_26)">
<path d="M155.057 51.1805L160.347 43.0098L163.45 46.7299C169.054 53.4247 173.436 61.0202 176.405 69.1808C178.829 75.8512 180.566 86.8842 180.752 95.5851L190.735 90.8463L199.801 96.9711C199.66 84.9042 196.801 68.776 192.862 59.2303C188.212 47.9216 181.381 37.601 172.746 28.8352L170.806 26.864L175.802 19.1465L142.461 19.4655L155.057 51.1805Z" fill="#BAC914"/>
<path d="M75.2152 23.736C83.4313 20.5728 92.1422 18.8274 100.964 18.577C108.169 18.3614 119.397 20.1632 127.879 22.6778L126.376 11.8891L135.112 5.3177C123.378 1.72072 106.883 -0.595871 96.4108 0.134525C84.0199 0.98272 71.9123 4.17165 60.7525 9.52628L58.2431 10.7297L52.3146 3.68091L42.3196 34.9142L76.9337 32.9518L70.6535 25.485L75.2152 23.736Z" fill="#BAC914"/>
<path d="M25.9637 103.831L25.6791 99.0304C25.1537 90.3797 26.1558 81.7049 28.6411 73.3895C30.6733 66.5959 35.8736 56.6652 40.9305 49.5218L30.0168 47.5946L26.349 37.4087C19.2398 47.2514 11.8975 61.9474 9.37021 71.9463C6.36315 83.7787 5.71042 96.0697 7.44782 108.145L7.83768 110.86L-0.822021 114.217L26.3401 133.203L35.1364 100.273L25.9637 103.831Z" fill="#BAC914"/>
<path d="M87.4285 160.111L88.038 169.776L83.3015 168.559C74.761 166.376 66.6686 162.761 59.3814 157.874C53.4261 153.874 45.4184 145.952 40.0612 139.022L34.8228 148.618L23.8218 148.896C31.1596 158.575 43.1241 169.974 52.028 175.421C62.5606 181.885 74.2649 186.293 86.4987 188.403L89.2479 188.878L89.8192 197.999L116.603 178.499L87.4285 160.111Z" fill="#BAC914"/>
<path d="M189.391 104.5L162.563 126.064L172.112 128.48L169.47 132.528C164.717 139.829 158.714 146.269 151.728 151.564C146.014 155.89 135.865 160.921 127.496 163.781L135.17 171.639L132.038 181.995C143.682 178.136 158.42 170.484 166.448 163.854C175.963 156.015 183.849 146.448 189.673 135.676L190.984 133.254L200 135.535L189.391 104.5Z" fill="#BAC914"/>
<path d="M102.299 93.0833C88.9194 89.6417 84.6169 86.0833 84.6169 80.5417C84.6169 74.1833 90.5697 69.75 100.53 69.75C111.022 69.75 114.912 74.7083 115.265 82H128.291C127.878 71.9667 121.69 62.75 109.371 59.775V47H91.6896V59.6C80.2554 62.05 71.0609 69.4 71.0609 80.6583C71.0609 94.1333 82.3183 100.842 98.7623 104.75C113.497 108.25 116.444 113.383 116.444 118.808C116.444 122.833 113.556 129.25 100.53 129.25C88.389 129.25 83.6149 123.883 82.9666 117H70C70.7073 129.775 80.3733 136.95 91.6896 139.342V152H109.371V139.458C120.864 137.3 130 130.708 130 118.75C130 102.183 115.678 96.525 102.299 93.0833Z" fill="#BAC914"/>
</g>
<defs>
<clipPath id="clip0_65_26">
<rect width="200" height="200" fill="white"/>
</clipPath>
</defs>
</svg>
