<svg width="200" height="200" viewBox="0 0 200 200" fill="none" xmlns="http://www.w3.org/2000/svg">
<path d="M151.743 53.5958L156.716 45.8377L159.634 49.37C164.903 55.7267 169.024 62.9385 171.815 70.687C174.094 77.0205 175.727 87.4962 175.902 95.7578L185.289 91.2583L193.813 97.0737C193.68 85.6162 190.992 70.3027 187.288 61.239C182.916 50.5015 176.494 40.7022 168.375 32.3791L166.55 30.5075L171.248 23.1797L139.899 23.4826L151.743 53.5958Z" fill="#BAC914"/>
<path d="M76.6717 27.5372C84.3968 24.5337 92.5872 22.8765 100.881 22.6388C107.656 22.4341 118.213 24.1449 126.189 26.5325L124.775 16.2886L132.989 10.0491C121.956 6.63381 106.447 4.43422 96.6007 5.12773C84.9502 5.93309 73.5661 8.96096 63.0732 14.0451L60.7137 15.1878L55.1395 8.495L45.7417 38.1508L78.2875 36.2875L72.3825 29.1979L76.6717 27.5372Z" fill="#BAC914"/>
<path d="M30.3631 103.587L30.0955 99.029C29.6016 90.8152 30.5438 82.5786 32.8806 74.6831C34.7913 68.2327 39.6809 58.8035 44.4356 52.0209L34.174 50.191L30.7254 40.5195C24.041 49.8652 17.1375 63.8189 14.7612 73.3128C11.9338 84.5476 11.3201 96.2178 12.9537 107.683L13.3202 110.261L5.17798 113.449L30.717 131.476L38.9878 100.209L30.3631 103.587Z" fill="#BAC914"/>
<path d="M88.1552 157.024L88.7282 166.201L84.2747 165.046C76.2446 162.973 68.6358 159.541 61.784 154.9C56.1845 151.103 48.6553 143.58 43.6183 137L38.6929 146.112L28.3492 146.375C35.2486 155.566 46.4981 166.389 54.87 171.561C64.7733 177.699 75.7781 181.884 87.2809 183.887L89.8658 184.339L90.403 192.999L115.586 174.483L88.1552 157.024Z" fill="#BAC914"/>
<path d="M184.025 104.222L158.8 124.697L167.778 126.991L165.295 130.834C160.825 137.767 155.181 143.882 148.612 148.91C143.24 153.016 133.697 157.794 125.828 160.509L133.044 167.971L130.099 177.803C141.047 174.139 154.905 166.874 162.453 160.578C171.4 153.136 178.814 144.052 184.29 133.824L185.523 131.524L194 133.69L184.025 104.222Z" fill="#BAC914"/>
<path d="M101.53 53.6421C77.3164 53.6421 57.6191 73.1752 57.6191 97.1827C57.6191 121.192 77.3185 140.725 101.53 140.725C125.744 140.725 145.444 121.192 145.444 97.1827C145.444 73.1752 125.742 53.6421 101.53 53.6421Z" fill="#52525B"/>
<path d="M101.53 44.9629C72.4901 44.9629 48.8639 68.3897 48.8639 97.1848C48.8639 125.98 72.4901 149.407 101.53 149.407C130.571 149.407 154.197 125.978 154.197 97.1848C154.197 68.3917 130.569 44.9629 101.53 44.9629ZM101.53 140.727C77.3164 140.727 57.6192 121.194 57.6192 97.1848C57.6192 73.1753 77.3185 53.6443 101.53 53.6443C125.744 53.6443 145.444 73.1774 145.444 97.1848C145.444 121.192 125.742 140.727 101.53 140.727Z" fill="#BAC914"/>
<path d="M105.735 92.2676C99.3521 89.8863 96.725 88.3217 96.725 85.8652C96.725 83.7784 98.3029 81.6937 103.184 81.6937C105.866 81.6937 108.065 82.1157 109.841 82.64C112.171 83.3272 114.6 81.8963 115.205 79.5631C115.487 78.452 115.314 77.2751 114.722 76.2909C114.131 75.3066 113.169 74.5955 112.049 74.3137C110.191 73.8291 107.975 73.4761 105.287 73.3549V70.4514C105.287 69.4841 104.899 68.5564 104.209 67.8724C103.519 67.1885 102.584 66.8042 101.608 66.8042C100.633 66.8042 99.6972 67.1885 99.0074 67.8724C98.3176 68.5564 97.9301 69.4841 97.9301 70.4514V73.875C89.8953 75.4396 85.2374 80.5762 85.2374 87.129C85.2374 94.3502 90.719 98.0726 98.7538 100.755C104.311 102.618 106.713 104.404 106.713 107.232C106.713 110.211 103.784 111.849 99.5058 111.849C96.5776 111.849 93.8115 111.287 91.3847 110.466C88.9999 109.66 86.4235 110.961 85.7957 113.38L85.7051 113.729C85.4288 114.784 85.5671 115.903 86.092 116.861C86.617 117.818 87.4892 118.542 88.5322 118.886C91.1445 119.736 94.3171 120.342 97.5509 120.484V123.91C97.5509 125.926 99.1983 127.557 101.229 127.557C103.262 127.557 104.909 125.924 104.909 123.91V119.962C113.543 118.473 118.276 112.816 118.276 106.188C118.276 99.4931 114.67 95.3968 105.735 92.2676Z" fill="#BAC914"/>
</svg>
