<svg width="28" height="28" viewBox="0 0 28 28" fill="none" xmlns="http://www.w3.org/2000/svg">
<path d="M14.0024 27.7699C17.5669 27.7699 20.9854 26.3539 23.5059 23.8334C26.0264 21.313 27.4424 17.8944 27.4424 14.3299C27.4423 12.565 27.0946 10.8173 26.4191 9.18672C25.7435 7.55614 24.7535 6.07457 23.5054 4.82662C22.2573 3.57866 20.7757 2.58876 19.145 1.91342C17.5144 1.23808 15.7667 0.890534 14.0017 0.890626C12.2367 0.890717 10.4891 1.23844 8.85848 1.91395C7.22789 2.58946 5.74633 3.57952 4.49838 4.8276C3.25042 6.07569 2.26052 7.55736 1.58518 9.18801C0.909839 10.8187 0.562293 12.5664 0.562385 14.3313C0.562384 21.7527 6.58098 27.7699 14.0024 27.7699ZM14.0024 3.69132C15.3996 3.69133 16.7832 3.96654 18.0741 4.50125C19.365 5.03596 20.538 5.81969 21.526 6.80771C22.514 7.79573 23.2978 8.96867 23.8325 10.2596C24.3672 11.5505 24.6424 12.9341 24.6424 14.3313C24.6424 15.7286 24.3672 17.1122 23.8325 18.4031C23.2978 19.694 22.514 20.8669 21.526 21.8549C20.538 22.843 19.365 23.6267 18.0741 24.1614C16.7832 24.6961 15.3996 24.9713 14.0024 24.9713L14.0024 14.3299L3.36239 14.33C3.36239 13.83 3.36239 12.8299 3.36239 14.33C3.36276 11.5083 4.48392 8.8023 6.47927 6.80721C8.47461 4.81213 11.1807 3.69132 14.0024 3.69132Z" fill="#333333"/>
</svg>
