<svg width="14" height="15" viewBox="0 0 14 15" fill="none" xmlns="http://www.w3.org/2000/svg">
<path fill-rule="evenodd" clip-rule="evenodd" d="M9.86508 5.26383H10.4454C11.0837 5.26383 11.606 5.7861 11.606 6.42442V12.2273C11.606 12.8657 11.0837 13.3879 10.4454 13.3879H3.48187C2.84355 13.3879 2.32129 12.8657 2.32129 12.2273V6.42442C2.32129 5.7861 2.84355 5.26383 3.48187 5.26383H4.06216V4.10325C4.06216 2.50164 5.36202 1.20179 6.96362 1.20179C8.56523 1.20179 9.86508 2.50164 9.86508 4.10325V5.26383ZM6.96362 2.36239C6.00033 2.36239 5.22274 3.13998 5.22274 4.10327V5.26385H8.70449V4.10327C8.70449 3.13998 7.9269 2.36239 6.96362 2.36239ZM10.4454 12.2273H3.48186V6.42443H10.4454V12.2273ZM8.12419 9.32589C8.12419 9.96421 7.60193 10.4865 6.96361 10.4865C6.32529 10.4865 5.80302 9.96421 5.80302 9.32589C5.80302 8.68757 6.32529 8.16531 6.96361 8.16531C7.60193 8.16531 8.12419 8.68757 8.12419 9.32589Z" fill="#e79204"/>
</svg>
