<svg width="146" height="51" viewBox="0 0 146 51" fill="none" xmlns="http://www.w3.org/2000/svg">
<g clip-path="url(#clip0_82_4502)">
<path d="M27.237 0.550934H22.8461H22.0931L4.78845 21.8306L4.19312 22.5628V23.5022V23.7259V27.6673H4.65197H4.78845H16.9139V39.1947H16.9281H21.6672V23.5799H8.60516L27.237 0.550934Z" fill="#AFCA0B"/>
<path d="M47.9984 39.1947V23.4999H41.0474V39.1947H35.2V0.550934H41.0474V17.981H47.9984V0.550934H53.8459V39.1947H47.9984Z" fill="#AFCA0B"/>
<path d="M72.88 39.1947L71.6117 28.8939H65.376L63.8889 39.1947H58.0391L64.7171 0.550934H72.1647L78.8404 39.1947H72.88ZM66.1478 23.5917H70.614L68.4656 8.83393H68.3009L66.1478 23.5917Z" fill="#AFCA0B"/>
<path d="M96.3261 39.1947L88.6574 13.5805H88.5468V39.1947H83.0288V0.550934H89.5398L96.4367 23.5705H96.5473V0.550934H102.063V39.1947H96.3261Z" fill="#AFCA0B"/>
<path d="M114.643 0.550934C120.933 0.550934 124.354 3.97432 124.354 10.322V29.4237C124.354 35.7713 120.933 39.1947 114.643 39.1947H106.256V0.550934H114.643ZM112.104 33.7842H114.422C117.236 33.7842 118.504 32.2938 118.504 29.0352V10.7104C118.504 7.45186 117.236 5.96149 114.422 5.96149H112.104V33.7865V33.7842Z" fill="#AFCA0B"/>
<path d="M145.725 8.83394V12.3562H140.096V9.27423C140.096 6.62546 139.103 5.41055 137.061 5.41055C135.35 5.41055 134.136 6.34998 134.136 8.55611V9.38488C134.136 11.5392 135.239 13.3051 139.047 16.7826C144.233 21.5834 145.998 24.7313 145.998 29.2047V31.0812C145.998 36.7673 142.412 39.748 137.061 39.748C131.71 39.748 128.013 36.6001 128.013 30.9141V28.8822H133.639V30.4714C133.639 33.0661 134.853 34.3351 136.95 34.3351C138.715 34.3351 140.15 33.3957 140.15 30.6363V29.4237C140.15 26.9939 139.047 25.2281 135.239 21.7505C130.053 16.9498 128.288 13.8019 128.288 9.60385V8.66442C128.288 2.97839 131.599 0 137.006 0C142.414 0 145.725 3.14556 145.725 8.83394Z" fill="#AFCA0B"/>
<path d="M21.6672 38.5943V39.1947H28.2535V38.5943H21.6672ZM27.6535 39.1947H28.2535V0.550934H27.6535V39.1947ZM28.2535 1.15132V0.550934H26.717V1.15132H28.2535Z" fill="#AFCA0B"/>
<path d="M22.0932 1.15132V0.550934H0V1.15132H22.0932ZM0.600039 0.550934H0V39.1947H0.600039V0.550934ZM0 38.5943V39.1947H16.914V38.5943H0Z" fill="#AFCA0B"/>
<path d="M41.5556 50.5315C41.1109 50.6986 40.2332 50.9529 39.2002 50.9529C38.0377 50.9529 37.08 50.6586 36.3365 49.9381C35.6776 49.3024 35.2705 48.283 35.2705 47.0869C35.2729 44.796 36.8447 43.122 39.412 43.122C40.2967 43.122 40.9979 43.3174 41.3274 43.4751L41.0803 44.2827C40.6732 44.0967 40.1602 43.9531 39.3884 43.9531C37.5295 43.9531 36.3106 45.1115 36.3106 47.0351C36.3106 48.9587 37.4754 50.1336 39.2684 50.1336C39.9155 50.1336 40.3555 50.0417 40.5838 49.9264V47.6402H39.0331V46.8467H41.5556V50.5315Z" fill="#AFCA0B"/>
<path d="M45.5299 43.3033C46.0312 43.202 46.7512 43.1385 47.4336 43.1385C48.4831 43.1385 49.1749 43.3386 49.6526 43.7695C50.0314 44.1061 50.2526 44.6288 50.2526 45.2292C50.2526 46.2369 49.6102 46.908 48.8078 47.1858V47.214C49.3914 47.4189 49.7443 47.9722 49.9302 48.768C50.182 49.8416 50.3632 50.5738 50.5185 50.8752H49.4926C49.3725 50.6539 49.1984 49.9994 48.989 49.0364C48.7631 47.9863 48.3466 47.5766 47.4524 47.5484H46.5159V50.8752H45.5276V43.3033H45.5299ZM46.5182 46.7973H47.5301C48.589 46.7973 49.2596 46.2205 49.2596 45.3399C49.2596 44.3416 48.5419 43.9084 47.4995 43.9084C47.0194 43.9084 46.6877 43.9531 46.5206 43.9955V46.7973H46.5182Z" fill="#AFCA0B"/>
<path d="M60.6981 46.9598C60.6981 49.5944 59.0957 51 57.145 51C55.1943 51 53.7024 49.4225 53.7024 47.1034C53.7024 44.7842 55.2037 43.0725 57.2485 43.0725C59.2933 43.0725 60.6981 44.6783 60.6981 46.9598ZM54.7472 47.0822C54.7472 48.7256 55.6366 50.1948 57.1967 50.1948C58.7568 50.1948 59.651 48.7491 59.651 47.0045C59.651 45.4764 58.8557 43.8801 57.2085 43.8801C55.5613 43.8801 54.7448 45.4035 54.7448 47.0822H54.7472Z" fill="#AFCA0B"/>
<path d="M65.4395 43.1973V47.7485C65.4395 49.4602 66.1972 50.1877 67.2302 50.1877C68.3574 50.1877 69.0939 49.4343 69.0939 47.7485V43.1973H70.0892V47.6779C70.0892 50.037 68.8515 51 67.1902 51C65.6278 51 64.4465 50.1053 64.4465 47.7202V43.1973H65.4419H65.4395Z" fill="#AFCA0B"/>
<path d="M74.2731 43.2915C74.7508 43.2067 75.3767 43.1385 76.1768 43.1385C77.1486 43.1385 77.8663 43.3645 78.3228 43.7765C78.7393 44.1438 78.9958 44.6995 78.9958 45.3846C78.9958 46.0698 78.7887 46.6301 78.4004 47.028C77.871 47.5884 77.0262 47.8686 76.0591 47.8686C75.7579 47.8686 75.4873 47.8568 75.259 47.7979V50.8776H74.2708V43.2939L74.2731 43.2915ZM75.2614 46.988C75.4802 47.0516 75.7555 47.0751 76.0826 47.0751C77.2827 47.0751 78.0075 46.4841 78.0075 45.4364C78.0075 44.3887 77.2827 43.9225 76.1979 43.9225C75.7603 43.9225 75.4379 43.9625 75.2614 44.0002V46.988Z" fill="#AFCA0B"/>
<path d="M22.8461 0.550934H22.0931L4.78845 21.8306L4.19312 22.5628V23.5022V23.7259V27.6673H4.78845V22.9913V22.7676L22.8461 0.550934Z" fill="#9CB40D"/>
<path d="M17.3211 27.6673H16.9141V39.1947H17.3211V27.6673Z" fill="#9CB40D"/>
</g>
<defs>
<clipPath id="clip0_82_4502">
<rect width="146" height="51" fill="white"/>
</clipPath>
</defs>
</svg>
