<?xml version="1.0" encoding="UTF-8"?>
<svg id="Camada_2" xmlns="http://www.w3.org/2000/svg" version="1.1" viewBox="0 0 1517 350">
  <!-- Generator: Adobe Illustrator 29.5.1, SVG Export Plug-In . SVG Version: 2.1.0 Build 141)  -->
  <defs>
    <style>
      .st0, .st1, .st2, .st3, .st4 {
        fill-rule: evenodd;
      }

      .st0, .st5 {
        fill: #115aa6;
      }

      .st1 {
        fill: #ffe863;
      }

      .st6, .st2 {
        fill: #fff;
      }

      .st7 {
        isolation: isolate;
      }

      .st3 {
        fill: #47afbd;
      }

      .st4 {
        fill: #0085c6;
      }
    </style>
  </defs>
  <g class="st7">
    <g class="st7">
      <path class="st5" d="M640.39,105.16h27.73c16.38,0,27.56,7.31,27.56,21.92v.18c0,14.88-11.36,22.8-28,22.8h-6.69v16.73h-20.6v-61.63ZM666.54,135.36c5.28,0,8.8-2.29,8.8-6.78v-.18c0-4.49-3.17-6.78-8.72-6.78h-5.63v13.73h5.55Z"/>
      <path class="st5" d="M704.48,105.16h20.6v21.75h18.84v-21.75h20.6v61.63h-20.6v-22.1h-18.84v22.1h-20.6v-61.63Z"/>
      <path class="st5" d="M797.46,104.72h20.43l25.97,62.07h-22.36l-3.26-8.28h-21.57l-3.17,8.28h-22.01l25.97-62.07ZM813.13,143.9l-5.63-14.97-5.63,14.97h11.27Z"/>
      <path class="st5" d="M850.81,105.16h30.11c11,0,17.87,2.73,22.19,7.04,3.79,3.79,5.63,8.28,5.63,14.62v.18c0,9.07-4.67,15.23-12.15,18.84l14.35,20.95h-23.51l-11.62-17.61h-4.4v17.61h-20.6v-61.63ZM880.3,134.48c4.93,0,7.92-2.2,7.92-5.99v-.18c0-3.96-2.99-5.9-7.84-5.9h-8.98v12.06h8.89Z"/>
      <path class="st5" d="M918.16,105.16h21.48l13.21,21.66,13.21-21.66h21.48v61.63h-20.51v-30.55l-14.17,21.92h-.35l-14.17-21.92v30.55h-20.16v-61.63Z"/>
      <path class="st5" d="M1020.46,104.72h20.43l25.97,62.07h-22.36l-3.26-8.28h-21.57l-3.17,8.28h-22.01l25.97-62.07ZM1036.13,143.9l-5.63-14.97-5.63,14.97h11.27Z"/>
      <path class="st5" d="M1143.71,162.39c-5.46,3.7-11.62,5.55-18.58,5.55-13.29,0-23.24-6.34-23.24-17.79v-.18c0-7.4,3.87-13.47,13.03-17.43-2.73-3.96-3.79-7.66-3.79-11.45v-.18c0-9.33,7.75-17.08,19.9-17.08s19.28,6.87,19.28,16.02v.18c0,7.04-4.31,12.41-11.09,15.94l5.55,5.37c2.03-2.73,3.79-5.81,5.63-9.07l12.59,5.9c-2.73,4.93-5.37,9.16-8.19,12.94l7.57,7.31-13.12,9.6-5.55-5.63ZM1133.94,152.17l-8.54-8.72c-2.2,1.67-3.08,3.35-3.08,5.37v.18c0,3.08,2.29,4.93,5.81,4.93,1.85,0,3.79-.7,5.81-1.76ZM1135.08,120.92v-.18c0-2.55-1.5-4.14-3.7-4.14-2.38,0-3.87,1.85-3.87,4.67v.18c0,2.11.97,4.05,2.73,6.43,3.43-1.76,4.84-4.23,4.84-6.96Z"/>
      <path class="st5" d="M1201.46,105.16h51.59v17.61h-30.99v7.84h28.79v16.02h-28.79v20.16h-20.6v-61.63Z"/>
      <path class="st5" d="M1260.89,136.15v-.18c0-17.87,14.7-32.14,33.72-32.14s33.54,14,33.54,31.96v.18c0,17.87-14.7,32.14-33.72,32.14s-33.54-14-33.54-31.96ZM1307.38,136.15v-.18c0-7.31-5.02-13.91-12.94-13.91s-12.77,6.51-12.77,13.73v.18c0,7.31,5.02,13.91,12.94,13.91s12.77-6.52,12.77-13.73Z"/>
      <path class="st5" d="M1336.78,136.15v-.18c0-17.87,14.7-32.14,33.72-32.14s33.54,14,33.54,31.96v.18c0,17.87-14.7,32.14-33.72,32.14s-33.54-14-33.54-31.96ZM1383.27,136.15v-.18c0-7.31-5.02-13.91-12.94-13.91s-12.77,6.51-12.77,13.73v.18c0,7.31,5.02,13.91,12.94,13.91s12.77-6.52,12.77-13.73Z"/>
      <path class="st5" d="M1414.08,105.16h23.6c24.48,0,36.71,11.97,36.71,30.29v.18c0,18.31-12.5,31.17-37.42,31.17h-22.89v-61.63ZM1434.68,123.12v25.71h3.43c9.51,0,15.5-3.87,15.5-12.77v-.18c0-8.89-5.99-12.77-15.5-12.77h-3.43Z"/>
    </g>
  </g>
  <g class="st7">
    <g class="st7">
      <path class="st5" d="M712.11,204.81h10.41v47.31h-10.41v-47.31Z"/>
      <path class="st5" d="M737.72,204.81h11.22l12.43,20,12.44-20h11.22v47.31h-10.34v-30.88l-13.31,20.21h-.27l-13.18-20v30.68h-10.2v-47.31Z"/>
      <path class="st5" d="M799.76,204.81h19.33c11.29,0,18.11,6.62,18.11,16.35v.13c0,11.02-8.52,16.62-19.13,16.62h-7.91v14.19h-10.41v-47.31ZM818.41,228.67c5.2,0,8.25-3.11,8.25-7.16v-.13c0-4.66-3.24-7.16-8.45-7.16h-8.04v14.46h8.24Z"/>
      <path class="st5" d="M846.19,228.6v-.13c0-13.45,10.61-24.46,25.21-24.46s25.07,10.88,25.07,24.33v.14c0,13.45-10.61,24.46-25.21,24.46s-25.07-10.88-25.07-24.33ZM885.59,228.6v-.13c0-8.11-5.95-14.87-14.33-14.87s-14.19,6.62-14.19,14.73v.14c0,8.11,5.95,14.87,14.33,14.87s14.19-6.62,14.19-14.73Z"/>
      <path class="st5" d="M909.1,204.81h21.63c6.01,0,10.61,1.62,13.79,4.8,2.7,2.7,4.05,6.29,4.05,10.81v.13c0,7.64-4.12,12.44-10.14,14.67l11.56,16.9h-12.16l-10.14-15.14h-8.18v15.14h-10.41v-47.31ZM930.05,227.79c5.14,0,7.97-2.64,7.97-6.69v-.14c0-4.53-3.04-6.76-8.18-6.76h-10.34v13.58h10.54Z"/>
      <path class="st5" d="M972.36,214.41h-14.39v-9.6h39.2v9.6h-14.39v37.71h-10.41v-37.71Z"/>
      <path class="st5" d="M1058.52,247.52c-3.85,3.18-8.38,5.27-13.85,5.27-8.99,0-15.88-5.27-15.88-13.65v-.13c0-6.01,3.24-10.27,9.19-12.98-2.37-3.24-3.31-6.22-3.31-9.46v-.13c0-6.42,5.14-12.44,14.33-12.44,8.04,0,13.31,5.2,13.31,11.89v.14c0,6.35-3.99,10-9.93,12.37l6.29,6.29c1.55-2.43,3.04-5.2,4.6-8.11l7.64,4.19c-1.83,3.31-3.85,6.83-6.22,10l6.96,6.96-7.64,5.34-5.47-5.54ZM1052.71,241.58l-9.06-9.19c-3.18,1.62-4.39,3.85-4.39,6.22v.14c0,3.31,2.77,5.54,6.62,5.54,2.37,0,4.66-1.01,6.83-2.7ZM1053.25,216.64v-.13c0-2.7-1.83-4.39-4.46-4.39-2.77,0-4.6,1.89-4.6,4.8v.14c0,2.09.81,3.65,2.77,5.88,4.12-1.55,6.29-3.31,6.29-6.29Z"/>
      <path class="st5" d="M1106.23,204.81h35.68v9.26h-25.34v9.6h22.3v9.26h-22.3v9.93h25.68v9.26h-36.02v-47.31Z"/>
      <path class="st5" d="M1195.91,204.81l-15.81,23.11,16.49,24.19h-12.16l-10.61-16.22-10.68,16.22h-11.83l16.49-24.06-15.81-23.25h12.17l9.87,15.34,10.07-15.34h11.83Z"/>
      <path class="st5" d="M1207.74,204.81h19.33c11.29,0,18.11,6.62,18.11,16.35v.13c0,11.02-8.52,16.62-19.13,16.62h-7.91v14.19h-10.41v-47.31ZM1226.39,228.67c5.2,0,8.25-3.11,8.25-7.16v-.13c0-4.66-3.24-7.16-8.45-7.16h-8.04v14.46h8.25Z"/>
      <path class="st5" d="M1254.17,228.6v-.13c0-13.45,10.61-24.46,25.21-24.46s25.07,10.88,25.07,24.33v.14c0,13.45-10.61,24.46-25.21,24.46s-25.07-10.88-25.07-24.33ZM1293.56,228.6v-.13c0-8.11-5.95-14.87-14.33-14.87s-14.19,6.62-14.19,14.73v.14c0,8.11,5.95,14.87,14.33,14.87s14.19-6.62,14.19-14.73Z"/>
      <path class="st5" d="M1317.08,204.81h21.63c6.01,0,10.61,1.62,13.79,4.8,2.7,2.7,4.06,6.29,4.06,10.81v.13c0,7.64-4.12,12.44-10.14,14.67l11.56,16.9h-12.17l-10.14-15.14h-8.18v15.14h-10.41v-47.31ZM1338.03,227.79c5.14,0,7.97-2.64,7.97-6.69v-.14c0-4.53-3.04-6.76-8.18-6.76h-10.34v13.58h10.54Z"/>
      <path class="st5" d="M1380.34,214.41h-14.39v-9.6h39.2v9.6h-14.4v37.71h-10.41v-37.71Z"/>
    </g>
  </g>
  <g>
    <g>
      <path class="st5" d="M91.96,269.47c-8.77,0-16.67-.87-23.68-2.6-7.02-1.73-13.33-4.2-18.94-7.39-5.62-3.19-10.57-6.93-14.87-11.22-4.3-4.29-8.12-9.08-11.45-14.37l40.25-35.32c3.51,5.3,7.1,9.4,10.79,12.32,3.68,2.92,8.07,4.38,13.16,4.38s9.21-2.01,12.37-6.02c3.16-4.01,4.74-9.4,4.74-16.15v-92.45h39.58c11.27,0,20.41,9.14,20.41,20.41v70.94c0,12.59-1.49,23.41-4.47,32.44s-7.89,17.11-14.73,24.23c-6.31,6.57-13.99,11.68-23.02,15.33-9.04,3.65-19.08,5.48-30.13,5.48h-.01Z"/>
      <path class="st5" d="M344.92,170.15c5.12-6.47,7.69-15.02,7.69-25.61v-.5c0-6.06-.9-11.36-2.71-15.9-1.81-4.54-4.15-8.41-7.01-11.61-4.67-5.21-10.59-9.17-17.74-11.86-7.16-2.69-16.24-4.04-27.24-4.04h-94.56c-10.79,0-19.54,8.75-19.54,19.54v149.29h114.1c11,0,20.08-1.35,27.24-4.04s13.07-6.65,17.74-11.86c2.86-3.2,5.2-7.07,7.01-11.61s2.71-9.84,2.71-15.9v-.5c0-10.6-2.57-19.14-7.69-25.61-5.12-6.48-11.97-11.4-20.56-14.76,0,0,.02-.14.04-.29,8.56-3.36,15.4-8.28,20.51-14.74h0Z"/>
    </g>
    <rect class="st6" x="228.75" y="127.47" width="100.31" height="36.37" rx="18.18" ry="18.18"/>
    <path class="st5" d="M278.91,131.76h-32.58c-7.07,0-12.81,6.2-12.81,13.84h0c0,7.64,5.73,13.84,12.81,13.84h37.35v-27.68h-4.77Z"/>
    <rect class="st6" x="228.75" y="206.99" width="100.31" height="36.37" rx="18.18" ry="18.18"/>
    <path class="st5" d="M311.49,211.39h-37.35v27.68h37.35c7.07,0,12.81-6.2,12.81-13.84h0c0-7.64-5.73-13.84-12.81-13.84h0Z"/>
    <g>
      <path class="st2" d="M397.6,109.96l32.34,19.46c10.12,6.08-2.61,34.29-21.39,25.27l-29.1-17.51c-10.83-6.04,5.44-35.52,18.15-27.22"/>
      <path class="st0" d="M381.18,128.36c.16,7.77.54,2.96,6.44,7.48,5.9,4.53,21.22,16.12,24.38,16.04,3.16-.08,13.42-.72,12.73-4.98-.69-4.25,7.02-8.06,2.94-13.25s-30.45-20.38-34.11-18.87c-7.12,2.31-12.26,3.59-12.38,13.58M397.6,109.96l32.34,19.46c10.12,6.09-2.61,34.29-21.39,25.27l-29.1-17.51c-10.83-6.04,5.44-35.52,18.15-27.22h0Z"/>
      <path class="st3" d="M483.41,112.75c45.89,0,83.09,37.2,83.09,83.09s-37.2,83.09-83.09,83.09-83.09-37.2-83.09-83.09,37.2-83.09,83.09-83.09"/>
      <path class="st0" d="M483.41,112.75c45.88,0,83.09,37.21,83.09,83.09s-37.21,83.09-83.09,83.09-83.09-37.21-83.09-83.09,37.21-83.09,83.09-83.09M500.53,119.44c7.57-.54,18.95,2.19,27.07,13.28s12.17,16.23,23.54,22.45c11.36,6.22,11.36,27.59,10.28,35.98-1.08,8.39,4.2,12.57-12.3,45.03s-35.51,24.26-47.96,34.27c-12.44,10.01-56.61-.3-62.83-12.21-6.22-11.9-27.32-18.13-27.59-49.24s-8.91-18.96,3.52-44.91c12.42-25.95,36.79-49.51,58.71-43.56,21.91,5.95,27.58-1.1,27.58-1.1h-.02Z"/>
      <polygon class="st1" points="480.95 139.79 553.88 203.36 478.26 254.49 405.67 195.8 480.95 139.79"/>
      <path class="st0" d="M480.95,139.79l72.93,63.58-75.61,51.12-72.6-58.69,75.28-56.01ZM477.53,147.76c4.02-1.48,38.96,24.81,43.23,34.69,4.27,9.87,24.46,17.31,27.22,20.55-1.35,3.89-23.13,5.45-35.36,23.16-5.93,7.68-28.17,16.63-33.02,22.92-10.41,1.53-24.74-34.04-38.8-34.19-14.07-.15-24.34-19.52-24.34-19.52,0,0,15.57-11.1,30.24-22.3,14.68-11.21,24.14-14.75,30.83-25.3h0Z"/>
      <path class="st4" d="M479.86,165.7c18.2,0,32.94,14.75,32.94,32.94s-14.75,32.95-32.94,32.95-32.95-14.75-32.95-32.95,14.75-32.94,32.95-32.94"/>
      <path class="st0" d="M476.75,169.76s11.38-2.05,17.28,2.87,6.04,11,12.15,14.35c4.2,2.53,5.44,19.11-.24,24.42-4.72,4.92-9.35,17.13-28.55,15.87-19.2-1.25-25.08-16.46-26.65-19.81-.64-2.89-1.74-19.16,6.72-26.05,6.93-6.69,13.41-10.72,19.29-11.65M479.86,165.7c18.19,0,32.94,14.75,32.94,32.94s-14.75,32.94-32.94,32.94-32.94-14.75-32.94-32.94,14.75-32.94,32.94-32.94Z"/>
      <path class="st2" d="M543.21,253.53l42.81.64c5.15.03,9.53-.31,9.9-6.3v-99.06l-83.36-67.33c-13.48-10.69-19.79-15.58-35.93-2.69-17.37,14.07-34.73,28.14-52.1,42.22,0,0,3.31,13.81,24.97,16.28,12.29-.14,34.44-.24,49.36-23.04,38.84,7.2,67.65,40.91,67.65,81.78,0,22.37-8.74,42.65-23.3,57.52"/>
      <path class="st0" d="M434.84,120.47s21.21-21.63,28.28-24.54,14.97-14.56,20.8-16.22c5.82-1.66,14.14-4.99,22.46,4.16,8.32,9.15,34.1,21.21,40.76,31.19,6.65,9.98,24.12,22.46,32.03,26.2,7.9,3.74,9.98,7.9,9.98,7.9,0,0-4.06,16.38-.62,28.85,3.44,12.48,1.37,31.79-.14,36.5s3.33,30.39.42,31.64c-2.91,1.25-30.91,2.03-34.92.44s13.5-20.11,17.25-34.66c3.74-14.56-6.93-65-19.85-74.08s-24.01-24.72-43.56-28.05-6.84,1.56-18.07,7.39c-11.23,5.82-.72,8.13-26.09,14.79-20.59,2.85-28.07-8.77-28.73-11.52M543.21,253.53l42.81.64c5.15.03,9.53-.31,9.9-6.3v-99.06l-83.36-67.33c-13.48-10.69-19.79-15.58-35.93-2.69-17.37,14.07-34.73,28.14-52.1,42.22,0,0,3.31,13.81,24.97,16.28,12.29-.14,34.44-.24,49.36-23.04,38.66,7.49,67.66,41.33,67.65,81.78,0,22.37-9.3,42.84-23.3,57.52v-.02Z"/>
      <path class="st2" d="M363.24,156.38h73.2c13.75,0,13.75,30.18,0,30.18h-73.2c-14.55,0-13.48-30.18,0-30.18"/>
      <path class="st0" d="M363.24,156.38h73.2c13.75,0,13.75,30.18,0,30.18h-73.2c-14.55,0-13.48-30.18,0-30.18M364.24,159.87c-5.77,2.79-8.3,9.37-6.05,12.74,2.24,3.37-.89,9.11,6.59,9.11s16.16-1.1,21.77,1.29,41.13-.34,45.11-.54c3.98-.19,8.39-1.47,9.02-11.62.63-10.15-5.07-11.63-8.24-10.51-3.18,1.12-24.82-4.1-29.31.21-5.52,2.97-33.12-3.47-38.89-.69h0Z"/>
      <path class="st2" d="M372.49,186.56h68.33c12.84,0,12.83,28.17,0,28.17h-68.33c-13.59,0-12.58-28.17,0-28.17"/>
      <path class="st0" d="M373.71,190.45c8.43-1.5,15.18-2.9,28.43,0,13.25,2.91,16.78-2.41,25.76-.09,8.97,2.32,8.64-3.39,13.05-.14,4.41,3.25,7.58,17.61.65,20.42s-21.96-1.12-30.93.73c-9.92,2.07-21.92-1.94-29.5-.43-8.43,1.5-7.42-1.92-10.14-2.74-2.99-.95-5.74-16.26,2.69-17.76M372.49,186.56h68.33c12.84,0,12.83,28.17,0,28.17h-68.33c-13.59,0-12.58-28.17,0-28.17Z"/>
      <path class="st2" d="M381.84,214.73h59.67c11.21,0,11.21,24.6,0,24.6h-59.67c-11.86,0-10.99-24.6,0-24.6"/>
      <path class="st0" d="M384.08,218.28c7.46-.59,8.83-2.01,18.93-.52,10.1,1.49,16.89-.55,22.28-1.01,5.39-.46,12.97,0,15.61,1.26,2.64,1.26,5.05,4.82,3.9,8.38s1.95,6.43-2.98,9.07c-4.94,2.64-15.28-2.92-24.35-.28s-28.74-.48-34.87.06c-4.41.53-7.93-15.56,1.48-16.95M381.84,214.73h59.67c11.21,0,11.21,24.6,0,24.6h-59.67c-11.86,0-10.99-24.6,0-24.6h0Z"/>
    </g>
  </g>
</svg>