<svg width="399" height="187" viewBox="0 0 399 187" fill="none" xmlns="http://www.w3.org/2000/svg">
<path d="M312.667 62.6484L326.167 74.1484L337.667 84.6484L349.667 95.1484L334.167 105.148L310.167 121.648L299.667 112.148L291.667 103.148V99.6484L293.667 97.6484V88.1484L288.167 84.6484L294.667 74.1484L309.167 63.6484L312.667 62.6484Z" fill="#FFE76B"/>
<path d="M285.167 50.1484L301.667 35.1484L309.167 28.1484L318.167 23.6484L324.892 28.1484L334.667 34.1484L342.667 41.1481L372.667 64.6481L373.667 94.1481V120.148H348.667L357.667 98.6484V76.6484L345.667 57.1481L334.167 49.6484L322.167 44.6481L310.167 54.1481L301.667 57.1481H290.667L285.167 50.1484Z" fill="white"/>
<rect x="244.667" y="70.6484" width="46" height="14" rx="7" fill="white"/>
<rect x="263.718" y="42.3789" width="25.4617" height="14.8603" rx="4" transform="rotate(36.5539 263.718 42.3789)" fill="white"/>
<rect x="249.667" y="86.6484" width="44" height="13" rx="6.5" fill="white"/>
<rect x="254.667" y="100.648" width="39" height="13" rx="6.5" fill="white"/>
<path d="M332.167 50.1484L340.667 54.6484L347.167 62.0861L351.786 68.6484L354.167 73.1484L358.667 82.1484L358.167 97.1484L349.167 121.148L331.167 131.148L312.667 135.648L298.667 132.648L289.167 128.648L279.667 119.648L278.167 115.148L298.167 111.648L310.167 122.648L349.167 95.1484L338.667 85.6484L329.167 76.1484L321.167 69.1484L316.167 65.6484L312.167 64.1484L309.167 63.6484L307.667 65.6484L302.667 68.6484L299.667 71.1484L295.167 74.1484L291.167 72.6484L289.167 70.6484L284.167 70.1484L278.167 67.1484L281.167 62.6484L283.167 59.6484L288.167 57.6484L295.667 58.6484L301.167 57.6484H307.167L314.167 52.6484L321.667 46.6484H328.128L332.167 50.1484Z" fill="#3AB0BA"/>
<path d="M309.2 26.8484C306.4 28.8484 298.267 35.115 291.333 40.715L278.8 50.8484L271.733 46.9817C263.2 42.1817 261.467 42.0484 257.333 46.315C253.067 50.4484 253.067 55.515 257.333 60.4484C261.867 65.915 260.533 68.315 252.667 68.315C242.133 68.315 238.267 74.8484 243.2 84.315C244.8 87.2484 246 90.8484 246 92.315C246 93.6484 247.467 97.6484 249.333 101.115C251.2 104.582 252.667 108.315 252.667 109.515C252.667 113.382 255.6 114.982 262.4 114.982C270.267 114.982 272.933 116.315 280.667 123.782C297.2 139.648 320.533 141.248 340.667 127.782C344.667 125.115 347.467 124.448 359.067 123.915C368.933 123.515 373.333 122.848 374.133 121.515C374.8 120.448 375.333 107.515 375.333 92.715V65.7817L364.4 56.5817C358.267 51.6484 346.533 42.0484 338.133 35.2484C320.667 21.2484 317.867 20.4484 309.2 26.8484ZM333.2 35.115C340.4 40.315 348.133 46.715 350.533 49.3817C352.8 51.915 358.267 56.315 362.533 59.115L370.4 64.0484L370.933 91.515L371.333 118.982H361.333C355.867 118.982 351.333 118.582 351.333 118.182C351.333 117.782 353.467 114.048 355.867 109.915C358.4 105.648 360.933 100.848 361.333 98.9817C362.533 93.7817 358.533 74.0484 354.8 66.4484C350.533 58.0484 336.533 46.5817 327.733 44.4484C322 42.9817 321.733 42.9817 316.533 47.915C308.133 55.915 298.933 58.1817 291.333 54.315C289.067 53.115 287.333 51.3817 287.333 50.4484C287.333 47.7817 308.667 29.2484 314.267 27.115C319.2 25.115 319.333 25.115 333.2 35.115ZM274.933 51.2484C278.8 53.6484 282 56.1817 282 56.9817C282 57.6484 280.133 60.315 277.867 62.715L273.867 67.2484L265.2 61.6484C256.267 55.7817 255.2 53.515 258.933 49.3817C262.133 45.915 266.933 46.4484 274.933 51.2484ZM334.8 52.0484C340.667 55.115 350 64.4484 353.2 70.8484C356.133 76.315 358.267 88.315 356.8 90.1817C356.267 90.9817 355.333 93.7817 354.933 96.4484C354 102.448 346.533 118.048 342.8 121.515C341.2 122.982 335.467 126.182 330 128.582C312.133 136.315 296.4 133.915 286.133 121.648L280.533 114.982H286.533C290.533 114.982 292.933 114.315 293.733 112.848C294.667 111.248 296.133 111.915 302.4 117.115L310 123.382L330.667 109.648C342 102.048 351.333 95.6484 351.333 95.3817C351.333 95.115 349.467 93.2484 347.067 91.2484C344.667 89.2484 335.733 81.515 327.333 74.1817L311.867 60.5817L305.867 65.115C302.667 67.6484 298.4 70.4484 296.533 71.515C293.333 73.115 292.667 72.9817 290.8 70.8484C289.467 69.2484 286.933 68.315 284 68.315C281.467 68.315 279.333 67.915 279.333 67.515C279.333 67.115 280.933 64.8484 282.8 62.315C286 58.0484 286.4 57.915 293.067 58.5817C302.133 59.515 309.6 57.3817 316.8 51.7817C323.2 46.8484 324.8 46.9817 334.8 52.0484ZM320.533 70.4484C325.067 73.7817 330.8 79.115 333.467 82.315C336 85.515 340.267 89.3817 342.8 90.8484C348.533 94.315 348.533 95.7817 342.667 97.6484C340.133 98.4484 335.2 101.782 331.733 104.848C328.267 107.915 321.733 112.848 317.333 115.648L309.467 120.582L304.933 115.515C302.4 112.582 298.267 108.182 295.733 105.382C292.533 101.915 291.733 100.315 292.8 99.515C293.867 98.9817 294.8 99.2484 295.2 100.448C296.267 104.048 303.333 109.382 307.867 110.182C314.267 111.382 322.667 107.782 326 102.315C329.2 97.115 329.467 93.6484 326.533 93.6484C322.933 93.6484 310.267 86.8484 306.4 82.715C303.333 79.515 303.067 78.5817 304.667 77.515C306.133 76.4484 305.867 76.315 303.333 76.9817C300 77.915 297.333 80.315 294.533 85.115C293.733 86.5817 292.533 87.115 291.467 86.4484C290.267 85.6484 290.133 84.9817 291.2 83.915C292 83.115 292.667 81.515 292.667 80.315C292.667 79.2484 296.267 75.6484 300.667 72.4484C305.067 69.2484 308.667 66.1817 308.667 65.515C308.667 62.8484 312.8 64.5817 320.533 70.4484ZM289.067 73.7817C291.067 76.9817 289.2 82.5817 285.733 83.515C281.867 84.4484 264 84.315 253.333 83.115C245.733 82.315 245.333 82.0484 244.933 78.5817C244.133 71.6484 245.6 71.2484 267.6 71.3817C284.4 71.6484 287.867 72.0484 289.067 73.7817ZM291.467 89.7817C293.733 93.2484 292.8 97.6484 289.733 98.8484C285.2 100.448 254.133 99.3817 251.867 97.515C249.2 95.3817 249.6 90.0484 252.4 88.4484C256 86.4484 290.133 87.6484 291.467 89.7817ZM291.2 103.782C292.4 104.982 292.267 111.115 291.067 111.782C288.667 113.248 258 112.848 256.4 111.248C255.6 110.448 255.333 108.315 255.867 106.448C256.667 103.248 257.067 103.115 269.067 102.582C280.667 102.182 290 102.582 291.2 103.782Z" fill="black"/>
<path d="M315.166 76.6484C316.366 76.9151 319.333 79.4148 320.666 79.1481C321.866 78.7481 314.167 74.6484 313.666 75.6484C311.133 75.6484 313.833 76.2484 315.166 76.6484Z" fill="black"/>
<path d="M329.166 89.6482C329.166 103.648 325.411 98.7758 326.166 91.1478C326.418 88.6051 321.166 86.1483 319.166 79.1483C321.167 76.1484 328.667 84.6484 329.166 89.6482Z" fill="black"/>
<path d="M329.166 89.6482C329.166 103.648 325.411 98.7758 326.166 91.1478C326.418 88.6051 321.166 86.1483 319.166 79.1483C321.167 76.1484 328.667 84.6484 329.166 89.6482Z" fill="black"/>
<path d="M311.667 75.1484C317.167 75.1484 317.167 77.6484 321.167 79.6484C320.167 80.6484 302.667 80.1484 302.667 78.1484C296.667 79.1483 308.167 74.6484 311.667 75.1484Z" fill="black"/>
<path d="M73.6458 143.547H77.1926V155H73.6458V143.547ZM81.632 146.703H84.6008V147.914C85.0278 147.409 85.4575 147.049 85.8898 146.836C86.3273 146.622 86.8534 146.516 87.4679 146.516C88.1294 146.516 88.6528 146.633 89.0383 146.867C89.4237 147.102 89.7388 147.451 89.9836 147.914C90.4836 147.372 90.9393 147.005 91.3508 146.812C91.7622 146.615 92.27 146.516 92.8742 146.516C93.7648 146.516 94.4601 146.781 94.9601 147.312C95.4601 147.839 95.7101 148.664 95.7101 149.789V155H92.5226V150.273C92.5226 149.898 92.4497 149.62 92.3039 149.438C92.0903 149.151 91.8247 149.008 91.507 149.008C91.132 149.008 90.8299 149.143 90.6008 149.414C90.3716 149.685 90.257 150.12 90.257 150.719V155H87.0695V150.43C87.0695 150.065 87.0487 149.818 87.007 149.688C86.9393 149.479 86.8221 149.312 86.6554 149.188C86.4888 149.057 86.2935 148.992 86.0695 148.992C85.7049 148.992 85.4054 149.13 85.1711 149.406C84.9367 149.682 84.8195 150.135 84.8195 150.766V155H81.632V146.703ZM99.7042 158.156V146.703H102.681V147.93C103.092 147.414 103.47 147.065 103.814 146.883C104.277 146.638 104.79 146.516 105.353 146.516C106.462 146.516 107.319 146.94 107.923 147.789C108.532 148.638 108.837 149.688 108.837 150.938C108.837 152.318 108.506 153.372 107.845 154.102C107.183 154.826 106.347 155.188 105.337 155.188C104.847 155.188 104.4 155.104 103.993 154.938C103.592 154.771 103.233 154.523 102.915 154.195V158.156H99.7042ZM102.892 150.875C102.892 151.531 103.03 152.018 103.306 152.336C103.582 152.654 103.931 152.812 104.353 152.812C104.722 152.812 105.032 152.661 105.282 152.359C105.532 152.052 105.657 151.534 105.657 150.805C105.657 150.133 105.527 149.641 105.267 149.328C105.006 149.01 104.689 148.852 104.314 148.852C103.907 148.852 103.569 149.01 103.298 149.328C103.027 149.646 102.892 150.161 102.892 150.875ZM112.05 150.875C112.05 149.609 112.477 148.568 113.331 147.75C114.185 146.927 115.339 146.516 116.792 146.516C118.453 146.516 119.709 146.997 120.558 147.961C121.24 148.737 121.581 149.693 121.581 150.828C121.581 152.104 121.157 153.151 120.308 153.969C119.464 154.781 118.295 155.188 116.8 155.188C115.466 155.188 114.388 154.849 113.565 154.172C112.555 153.333 112.05 152.234 112.05 150.875ZM115.237 150.867C115.237 151.607 115.386 152.154 115.683 152.508C115.985 152.862 116.362 153.039 116.815 153.039C117.274 153.039 117.649 152.865 117.94 152.516C118.237 152.167 118.386 151.607 118.386 150.836C118.386 150.117 118.237 149.583 117.94 149.234C117.644 148.88 117.276 148.703 116.839 148.703C116.375 148.703 115.993 148.883 115.69 149.242C115.388 149.596 115.237 150.138 115.237 150.867ZM125.224 146.703H128.2V148.062C128.487 147.474 128.781 147.07 129.083 146.852C129.39 146.628 129.768 146.516 130.216 146.516C130.685 146.516 131.198 146.661 131.755 146.953L130.77 149.219C130.395 149.062 130.099 148.984 129.88 148.984C129.463 148.984 129.14 149.156 128.911 149.5C128.583 149.984 128.419 150.891 128.419 152.219V155H125.224V146.703ZM138.218 143.547V146.703H139.968V149.023H138.218V151.969C138.218 152.323 138.251 152.557 138.319 152.672C138.423 152.849 138.606 152.938 138.866 152.938C139.1 152.938 139.429 152.87 139.85 152.734L140.085 154.93C139.298 155.102 138.564 155.188 137.882 155.188C137.09 155.188 136.507 155.086 136.132 154.883C135.757 154.68 135.478 154.372 135.296 153.961C135.119 153.544 135.03 152.872 135.03 151.945V149.023H133.858V146.703H135.03V145.18L138.218 143.547ZM146.469 149.391L143.43 149.07C143.545 148.539 143.709 148.122 143.923 147.82C144.141 147.513 144.454 147.247 144.86 147.023C145.152 146.862 145.553 146.737 146.063 146.648C146.574 146.56 147.126 146.516 147.719 146.516C148.673 146.516 149.438 146.57 150.016 146.68C150.594 146.784 151.076 147.005 151.462 147.344C151.733 147.578 151.946 147.911 152.102 148.344C152.259 148.771 152.337 149.18 152.337 149.57V153.234C152.337 153.625 152.36 153.932 152.407 154.156C152.459 154.375 152.568 154.656 152.735 155H149.751C149.631 154.786 149.553 154.625 149.516 154.516C149.48 154.401 149.443 154.224 149.407 153.984C148.99 154.385 148.576 154.672 148.165 154.844C147.602 155.073 146.949 155.188 146.204 155.188C145.214 155.188 144.462 154.958 143.946 154.5C143.436 154.042 143.18 153.477 143.18 152.805C143.18 152.174 143.365 151.656 143.735 151.25C144.105 150.844 144.787 150.542 145.782 150.344C146.975 150.104 147.748 149.938 148.102 149.844C148.456 149.745 148.831 149.617 149.227 149.461C149.227 149.07 149.147 148.797 148.985 148.641C148.824 148.484 148.54 148.406 148.134 148.406C147.613 148.406 147.222 148.49 146.962 148.656C146.759 148.786 146.594 149.031 146.469 149.391ZM149.227 151.062C148.79 151.219 148.334 151.357 147.86 151.477C147.214 151.648 146.805 151.818 146.634 151.984C146.456 152.156 146.368 152.352 146.368 152.57C146.368 152.82 146.454 153.026 146.626 153.188C146.803 153.344 147.061 153.422 147.399 153.422C147.753 153.422 148.081 153.336 148.384 153.164C148.691 152.992 148.907 152.784 149.032 152.539C149.162 152.289 149.227 151.966 149.227 151.57V151.062ZM165.057 143.547V155H162.081V153.773C161.664 154.294 161.284 154.646 160.94 154.828C160.482 155.068 159.971 155.188 159.409 155.188C158.279 155.188 157.414 154.758 156.815 153.898C156.221 153.039 155.924 151.995 155.924 150.766C155.924 149.391 156.253 148.339 156.909 147.609C157.57 146.88 158.409 146.516 159.424 146.516C159.919 146.516 160.367 146.599 160.768 146.766C161.174 146.932 161.534 147.182 161.846 147.516V143.547H165.057ZM161.87 150.828C161.87 150.177 161.732 149.693 161.456 149.375C161.18 149.052 160.831 148.891 160.409 148.891C160.039 148.891 159.729 149.044 159.479 149.352C159.229 149.659 159.104 150.174 159.104 150.898C159.104 151.576 159.232 152.073 159.487 152.391C159.747 152.703 160.068 152.859 160.448 152.859C160.854 152.859 161.193 152.701 161.464 152.383C161.734 152.065 161.87 151.547 161.87 150.828ZM168.684 150.875C168.684 149.609 169.111 148.568 169.965 147.75C170.82 146.927 171.973 146.516 173.426 146.516C175.088 146.516 176.343 146.997 177.192 147.961C177.874 148.737 178.215 149.693 178.215 150.828C178.215 152.104 177.791 153.151 176.942 153.969C176.098 154.781 174.929 155.188 173.434 155.188C172.101 155.188 171.023 154.849 170.2 154.172C169.189 153.333 168.684 152.234 168.684 150.875ZM171.872 150.867C171.872 151.607 172.02 152.154 172.317 152.508C172.619 152.862 172.997 153.039 173.45 153.039C173.908 153.039 174.283 152.865 174.575 152.516C174.872 152.167 175.02 151.607 175.02 150.836C175.02 150.117 174.872 149.583 174.575 149.234C174.278 148.88 173.911 148.703 173.473 148.703C173.01 148.703 172.627 148.883 172.325 149.242C172.023 149.596 171.872 150.138 171.872 150.867ZM181.858 146.703H184.835V148.062C185.121 147.474 185.415 147.07 185.717 146.852C186.025 146.628 186.402 146.516 186.85 146.516C187.319 146.516 187.832 146.661 188.389 146.953L187.405 149.219C187.03 149.062 186.733 148.984 186.514 148.984C186.098 148.984 185.775 149.156 185.545 149.5C185.217 149.984 185.053 150.891 185.053 152.219V155H181.858V146.703ZM193.915 149.391L190.875 149.07C190.99 148.539 191.154 148.122 191.368 147.82C191.586 147.513 191.899 147.247 192.305 147.023C192.597 146.862 192.998 146.737 193.508 146.648C194.019 146.56 194.571 146.516 195.165 146.516C196.118 146.516 196.883 146.57 197.461 146.68C198.04 146.784 198.521 147.005 198.907 147.344C199.178 147.578 199.391 147.911 199.547 148.344C199.704 148.771 199.782 149.18 199.782 149.57V153.234C199.782 153.625 199.805 153.932 199.852 154.156C199.904 154.375 200.013 154.656 200.18 155H197.196C197.076 154.786 196.998 154.625 196.961 154.516C196.925 154.401 196.888 154.224 196.852 153.984C196.435 154.385 196.021 154.672 195.61 154.844C195.047 155.073 194.394 155.188 193.649 155.188C192.659 155.188 191.907 154.958 191.391 154.5C190.881 154.042 190.625 153.477 190.625 152.805C190.625 152.174 190.81 151.656 191.18 151.25C191.55 150.844 192.232 150.542 193.227 150.344C194.42 150.104 195.193 149.938 195.547 149.844C195.901 149.745 196.276 149.617 196.672 149.461C196.672 149.07 196.592 148.797 196.43 148.641C196.269 148.484 195.985 148.406 195.579 148.406C195.058 148.406 194.667 148.49 194.407 148.656C194.204 148.786 194.04 149.031 193.915 149.391ZM196.672 151.062C196.235 151.219 195.779 151.357 195.305 151.477C194.659 151.648 194.25 151.818 194.079 151.984C193.901 152.156 193.813 152.352 193.813 152.57C193.813 152.82 193.899 153.026 194.071 153.188C194.248 153.344 194.506 153.422 194.844 153.422C195.198 153.422 195.526 153.336 195.829 153.164C196.136 152.992 196.352 152.784 196.477 152.539C196.607 152.289 196.672 151.966 196.672 151.57V151.062ZM220.442 149.43L222.926 149.984C222.796 150.443 222.671 150.81 222.551 151.086C222.431 151.362 222.262 151.688 222.043 152.062L223.239 152.883C223.384 152.977 223.572 153.089 223.801 153.219L222.09 155.188C221.778 155.021 221.452 154.828 221.114 154.609C220.78 154.391 220.481 154.203 220.215 154.047C219.663 154.411 219.111 154.677 218.559 154.844C217.793 155.073 216.923 155.188 215.949 155.188C214.423 155.188 213.288 154.87 212.543 154.234C211.798 153.599 211.426 152.828 211.426 151.922C211.426 151.271 211.645 150.656 212.082 150.078C212.52 149.495 213.236 149.003 214.231 148.602C213.814 148.096 213.528 147.659 213.371 147.289C213.215 146.914 213.137 146.534 213.137 146.148C213.137 145.336 213.447 144.667 214.067 144.141C214.686 143.615 215.627 143.352 216.887 143.352C218.173 143.352 219.119 143.602 219.723 144.102C220.327 144.602 220.629 145.201 220.629 145.898C220.629 146.289 220.535 146.664 220.348 147.023C220.166 147.383 219.944 147.674 219.684 147.898C219.423 148.122 218.957 148.456 218.285 148.898C218.843 149.456 219.423 149.974 220.028 150.453C220.189 150.13 220.327 149.789 220.442 149.43ZM216.785 147.422C217.197 147.198 217.515 146.956 217.739 146.695C217.963 146.43 218.074 146.18 218.074 145.945C218.074 145.701 217.981 145.495 217.793 145.328C217.606 145.156 217.348 145.07 217.02 145.07C216.697 145.07 216.434 145.164 216.231 145.352C216.028 145.539 215.926 145.76 215.926 146.016C215.926 146.339 216.213 146.807 216.785 147.422ZM215.653 150.203C215.215 150.51 214.923 150.773 214.778 150.992C214.637 151.211 214.567 151.443 214.567 151.688C214.567 152.068 214.731 152.406 215.059 152.703C215.387 153 215.814 153.148 216.34 153.148C216.908 153.148 217.546 152.927 218.254 152.484C217.577 151.964 216.71 151.203 215.653 150.203ZM235.188 143.547H240.445C241.482 143.547 242.318 143.688 242.953 143.969C243.594 144.25 244.123 144.654 244.539 145.18C244.956 145.706 245.258 146.318 245.445 147.016C245.633 147.714 245.727 148.453 245.727 149.234C245.727 150.458 245.586 151.409 245.305 152.086C245.029 152.758 244.643 153.323 244.149 153.781C243.654 154.234 243.123 154.536 242.555 154.688C241.779 154.896 241.076 155 240.445 155H235.188V143.547ZM238.727 146.141V152.398H239.594C240.333 152.398 240.859 152.318 241.172 152.156C241.484 151.99 241.729 151.703 241.906 151.297C242.083 150.885 242.172 150.221 242.172 149.305C242.172 148.091 241.974 147.26 241.578 146.812C241.182 146.365 240.526 146.141 239.609 146.141H238.727ZM249.58 143.547H252.76V145.711H249.58V143.547ZM249.58 146.703H252.76V155H249.58V146.703ZM256.309 152.703L259.465 152.406C259.595 152.781 259.777 153.049 260.012 153.211C260.246 153.372 260.559 153.453 260.949 153.453C261.376 153.453 261.707 153.362 261.941 153.18C262.124 153.044 262.215 152.875 262.215 152.672C262.215 152.443 262.095 152.266 261.855 152.141C261.684 152.052 261.228 151.943 260.488 151.812C259.384 151.62 258.616 151.443 258.184 151.281C257.756 151.115 257.395 150.836 257.098 150.445C256.806 150.055 256.66 149.609 256.66 149.109C256.66 148.562 256.819 148.091 257.137 147.695C257.454 147.299 257.892 147.005 258.449 146.812C259.006 146.615 259.754 146.516 260.691 146.516C261.681 146.516 262.41 146.591 262.879 146.742C263.353 146.893 263.746 147.128 264.059 147.445C264.376 147.763 264.639 148.193 264.848 148.734L261.832 149.031C261.754 148.766 261.624 148.57 261.441 148.445C261.191 148.279 260.889 148.195 260.535 148.195C260.176 148.195 259.913 148.26 259.746 148.391C259.585 148.516 259.504 148.669 259.504 148.852C259.504 149.055 259.608 149.208 259.816 149.312C260.025 149.417 260.478 149.51 261.176 149.594C262.233 149.714 263.02 149.88 263.535 150.094C264.051 150.307 264.444 150.612 264.715 151.008C264.991 151.404 265.129 151.839 265.129 152.312C265.129 152.792 264.983 153.258 264.691 153.711C264.405 154.164 263.949 154.526 263.324 154.797C262.704 155.062 261.858 155.195 260.785 155.195C259.27 155.195 258.189 154.979 257.543 154.547C256.902 154.115 256.491 153.5 256.309 152.703ZM272.568 143.547V146.703H274.318V149.023H272.568V151.969C272.568 152.323 272.602 152.557 272.67 152.672C272.774 152.849 272.956 152.938 273.217 152.938C273.451 152.938 273.779 152.87 274.201 152.734L274.435 154.93C273.649 155.102 272.915 155.188 272.232 155.188C271.441 155.188 270.857 155.086 270.482 154.883C270.107 154.68 269.829 154.372 269.646 153.961C269.469 153.544 269.381 152.872 269.381 151.945V149.023H268.209V146.703H269.381V145.18L272.568 143.547ZM277.953 146.703H280.93V148.062C281.216 147.474 281.51 147.07 281.812 146.852C282.12 146.628 282.497 146.516 282.945 146.516C283.414 146.516 283.927 146.661 284.484 146.953L283.5 149.219C283.125 149.062 282.828 148.984 282.609 148.984C282.193 148.984 281.87 149.156 281.64 149.5C281.312 149.984 281.148 150.891 281.148 152.219V155H277.953V146.703ZM287.228 143.547H290.408V145.711H287.228V143.547ZM287.228 146.703H290.408V155H287.228V146.703ZM294.535 143.547H297.746V147.516C298.063 147.182 298.423 146.932 298.824 146.766C299.23 146.599 299.678 146.516 300.168 146.516C301.178 146.516 302.014 146.88 302.675 147.609C303.337 148.333 303.668 149.375 303.668 150.734C303.668 151.641 303.517 152.44 303.215 153.133C302.912 153.82 302.493 154.336 301.957 154.68C301.425 155.018 300.834 155.188 300.183 155.188C299.626 155.188 299.116 155.068 298.652 154.828C298.303 154.641 297.923 154.289 297.511 153.773V155H294.535V143.547ZM297.722 150.828C297.722 151.542 297.855 152.06 298.121 152.383C298.392 152.701 298.733 152.859 299.144 152.859C299.524 152.859 299.842 152.703 300.097 152.391C300.358 152.073 300.488 151.542 300.488 150.797C300.488 150.141 300.36 149.659 300.105 149.352C299.855 149.044 299.55 148.891 299.191 148.891C298.759 148.891 298.405 149.052 298.129 149.375C297.858 149.693 297.722 150.177 297.722 150.828ZM316.013 155H313.044V153.656C312.602 154.208 312.154 154.602 311.701 154.836C311.253 155.07 310.701 155.188 310.044 155.188C309.169 155.188 308.482 154.927 307.982 154.406C307.487 153.88 307.24 153.073 307.24 151.984V146.703H310.435V151.266C310.435 151.786 310.531 152.156 310.724 152.375C310.917 152.594 311.188 152.703 311.537 152.703C311.917 152.703 312.227 152.557 312.466 152.266C312.711 151.974 312.834 151.451 312.834 150.695V146.703H316.013V155ZM320.14 143.547H323.32V145.711H320.14V143.547ZM320.14 146.703H323.32V155H320.14V146.703ZM336.165 143.547V155H333.189V153.773C332.772 154.294 332.392 154.646 332.048 154.828C331.59 155.068 331.079 155.188 330.517 155.188C329.387 155.188 328.522 154.758 327.923 153.898C327.329 153.039 327.033 151.995 327.033 150.766C327.033 149.391 327.361 148.339 328.017 147.609C328.678 146.88 329.517 146.516 330.533 146.516C331.027 146.516 331.475 146.599 331.876 146.766C332.283 146.932 332.642 147.182 332.954 147.516V143.547H336.165ZM332.978 150.828C332.978 150.177 332.84 149.693 332.564 149.375C332.288 149.052 331.939 148.891 331.517 148.891C331.147 148.891 330.837 149.044 330.587 149.352C330.337 149.659 330.212 150.174 330.212 150.898C330.212 151.576 330.34 152.073 330.595 152.391C330.856 152.703 331.176 152.859 331.556 152.859C331.962 152.859 332.301 152.701 332.572 152.383C332.843 152.065 332.978 151.547 332.978 150.828ZM339.792 150.875C339.792 149.609 340.219 148.568 341.074 147.75C341.928 146.927 343.081 146.516 344.534 146.516C346.196 146.516 347.451 146.997 348.3 147.961C348.982 148.737 349.324 149.693 349.324 150.828C349.324 152.104 348.899 153.151 348.05 153.969C347.206 154.781 346.037 155.188 344.542 155.188C343.209 155.188 342.131 154.849 341.308 154.172C340.298 153.333 339.792 152.234 339.792 150.875ZM342.98 150.867C342.98 151.607 343.128 152.154 343.425 152.508C343.727 152.862 344.105 153.039 344.558 153.039C345.016 153.039 345.391 152.865 345.683 152.516C345.98 152.167 346.128 151.607 346.128 150.836C346.128 150.117 345.98 149.583 345.683 149.234C345.386 148.88 345.019 148.703 344.581 148.703C344.118 148.703 343.735 148.883 343.433 149.242C343.131 149.596 342.98 150.138 342.98 150.867ZM352.966 146.703H355.943V148.062C356.229 147.474 356.523 147.07 356.825 146.852C357.133 146.628 357.51 146.516 357.958 146.516C358.427 146.516 358.94 146.661 359.497 146.953L358.513 149.219C358.138 149.062 357.841 148.984 357.622 148.984C357.206 148.984 356.883 149.156 356.654 149.5C356.325 149.984 356.161 150.891 356.161 152.219V155H352.966V146.703ZM365.023 149.391L361.984 149.07C362.098 148.539 362.262 148.122 362.476 147.82C362.694 147.513 363.007 147.247 363.413 147.023C363.705 146.862 364.106 146.737 364.616 146.648C365.127 146.56 365.679 146.516 366.273 146.516C367.226 146.516 367.991 146.57 368.569 146.68C369.148 146.784 369.629 147.005 370.015 147.344C370.286 147.578 370.499 147.911 370.655 148.344C370.812 148.771 370.89 149.18 370.89 149.57V153.234C370.89 153.625 370.913 153.932 370.96 154.156C371.012 154.375 371.122 154.656 371.288 155H368.304C368.184 154.786 368.106 154.625 368.069 154.516C368.033 154.401 367.997 154.224 367.96 153.984C367.543 154.385 367.129 154.672 366.718 154.844C366.155 155.073 365.502 155.188 364.757 155.188C363.767 155.188 363.015 154.958 362.499 154.5C361.989 154.042 361.734 153.477 361.734 152.805C361.734 152.174 361.918 151.656 362.288 151.25C362.658 150.844 363.34 150.542 364.335 150.344C365.528 150.104 366.301 149.938 366.655 149.844C367.01 149.745 367.385 149.617 367.78 149.461C367.78 149.07 367.7 148.797 367.538 148.641C367.377 148.484 367.093 148.406 366.687 148.406C366.166 148.406 365.775 148.49 365.515 148.656C365.312 148.786 365.148 149.031 365.023 149.391ZM367.78 151.062C367.343 151.219 366.887 151.357 366.413 151.477C365.767 151.648 365.359 151.818 365.187 151.984C365.01 152.156 364.921 152.352 364.921 152.57C364.921 152.82 365.007 153.026 365.179 153.188C365.356 153.344 365.614 153.422 365.952 153.422C366.306 153.422 366.635 153.336 366.937 153.164C367.244 152.992 367.46 152.784 367.585 152.539C367.715 152.289 367.78 151.966 367.78 151.57V151.062Z" fill="white"/>
<path d="M100.4 66.94C105.72 61.2467 112.627 58.4 121.12 58.4C131.107 58.4 138.807 61.6667 144.22 68.2C149.633 74.64 152.34 84.2067 152.34 96.9C152.34 109.687 149.633 119.347 144.22 125.88C138.807 132.413 131.107 135.68 121.12 135.68C110.853 135.68 103.013 131.62 97.5999 123.5L95.2199 134H72.5399V32.5H100.4V66.94ZM112.44 78.98C108.333 78.98 105.253 80.4733 103.2 83.46C101.147 86.3533 100.12 90.1333 100.12 94.8V99.42C100.12 104.087 101.147 107.867 103.2 110.76C105.253 113.653 108.333 115.1 112.44 115.1C120.467 115.1 124.48 110.34 124.48 100.82V93.4C124.48 83.7867 120.467 78.98 112.44 78.98Z" fill="white"/>
<path d="M189.953 58.4C203.487 58.4 213.8 61.5733 220.893 67.92C228.08 74.2667 231.673 83.9733 231.673 97.04V101.8H176.233C176.233 107.12 177.4 111.133 179.733 113.84C182.16 116.547 185.94 117.9 191.073 117.9C195.74 117.9 199.147 116.92 201.293 114.96C203.533 113 204.653 110.387 204.653 107.12H231.673C231.673 116.08 228.267 123.08 221.453 128.12C214.64 133.16 204.7 135.68 191.633 135.68C177.913 135.68 167.273 132.507 159.713 126.16C152.153 119.72 148.373 110.013 148.373 97.04C148.373 84.3467 152.06 74.7333 159.433 68.2C166.807 61.6667 176.98 58.4 189.953 58.4ZM191.073 76.18C182.3 76.18 177.4 80.3333 176.373 88.64H203.533C203.533 84.8133 202.413 81.78 200.173 79.54C198.027 77.3 194.993 76.18 191.073 76.18Z" fill="white"/>
<path d="M38.3799 51.4V32.5H66.2399V51.4H38.3799ZM66.2399 138.06C66.2399 147.02 64.1865 153.46 60.0799 157.38C56.0665 161.393 49.5799 163.4 40.6199 163.4C38.1932 163.4 35.2065 163.167 31.6599 162.7C28.1132 162.233 25.3132 161.627 23.2599 160.88V144.22H30.5399C35.7665 144.22 38.3799 141.233 38.3799 135.26V60.08H66.2399V138.06Z" fill="white"/>
<circle cx="310.667" cy="92.6484" r="16" fill="#0089C8"/>
<path d="M355.667 78.6484C362.667 97.6484 344.667 101.148 327.167 100.648C313.636 100.648 302.667 88.6794 302.667 75.1484C302.667 61.6175 306.167 58.1484 323.167 48.1484C332.667 48.1484 354.167 65.1484 355.667 78.6484Z" fill="white" fill-opacity="0.49"/>
<path d="M343.333 62.3148C345.866 64.8481 348.133 66.9814 348.533 66.9814C348.933 66.9814 347.2 64.8481 344.666 62.3148C342.133 59.7814 339.866 57.6481 339.466 57.6481C339.066 57.6481 340.8 59.7814 343.333 62.3148Z" fill="black"/>
</svg>
