<svg width="5663" height="1208" viewBox="0 0 5663 1208" fill="none" xmlns="http://www.w3.org/2000/svg">
<g filter="url(#filter0_d_445_56)">
<path d="M1493.93 204.818L1771.5 808H1670.53L1580.67 611.388H1327.57L1234.6 808H1184.78L1469.02 204.818H1493.93ZM1344.92 573.133H1562.44L1455.23 339.6L1344.92 573.133ZM1844.9 218.163H1944.09V601.157C1944.09 626.363 1948.39 650.087 1956.99 672.329C1965.59 694.273 1977.9 713.549 1993.91 730.156C2009.93 746.763 2029.2 759.959 2051.74 769.745C2074.58 779.235 2099.93 783.979 2127.81 783.979C2155.98 783.979 2181.33 779.235 2203.87 769.745C2226.41 759.959 2245.54 746.763 2261.25 730.156C2277.27 713.549 2289.43 694.273 2297.73 672.329C2306.33 650.087 2310.63 626.363 2310.63 601.157V218.163H2354.22V601.157C2354.22 631.405 2349.33 659.874 2339.54 686.563C2329.76 713.252 2314.34 736.68 2293.28 756.845C2272.52 776.714 2245.83 792.579 2213.21 804.441C2180.59 816.007 2141.45 821.79 2095.78 821.79C2055.15 821.79 2019.12 816.007 1987.69 804.441C1956.55 792.579 1930.3 776.566 1908.95 756.4C1887.9 736.235 1871.88 712.659 1860.91 685.673C1850.24 658.391 1844.9 629.329 1844.9 598.488V218.163ZM2505.02 218.163H2701.63C2762.13 218.163 2814.17 223.798 2857.76 235.066C2901.36 246.335 2937.68 264.425 2966.75 289.335C2999.96 317.804 3024.87 350.424 3041.48 387.196C3058.38 423.968 3066.83 464.151 3066.83 507.744C3066.83 549.261 3059.27 588.257 3044.14 624.732C3029.32 661.208 3007.37 693.087 2978.31 720.37C2949.55 747.356 2913.81 768.707 2871.11 784.424C2828.7 800.141 2780.07 808 2725.21 808H2505.02V218.163ZM2604.21 764.852H2709.64C2742.85 764.852 2774.14 759.366 2803.49 748.394C2832.85 737.421 2858.36 721.111 2880 699.463C2901.95 677.815 2919.15 651.274 2931.6 619.839C2944.36 588.109 2950.73 551.485 2950.73 509.968C2950.73 473.492 2944.8 440.13 2932.94 409.882C2921.08 379.338 2904.47 353.093 2883.12 331.148C2861.77 309.204 2836.26 292.152 2806.61 279.994C2777.25 267.835 2745.07 261.756 2710.08 261.756H2604.21V764.852ZM3200.72 218.163H3299.92V808H3200.72V218.163ZM3924.01 218.163V256.418H3710.49V808H3611.3V256.418H3397.78V218.163H3924.01ZM4251.84 204.818L4529.41 808H4428.44L4338.58 611.388H4085.48L3992.51 808H3942.69L4226.93 204.818H4251.84ZM4102.83 573.133H4320.35L4213.14 339.6L4102.83 573.133ZM4583.68 808H4531.64L4780.29 517.085L4553.43 218.163H4671.31L4842.57 444.579L5035.62 218.163H5088.11L4866.59 477.051L5117.92 808H4999.15L4804.31 549.557L4583.68 808ZM5392.82 784.424C5407.35 784.424 5421.73 782.497 5435.96 778.642C5450.2 774.49 5462.95 768.559 5474.22 760.849C5485.49 752.842 5494.53 743.204 5501.35 731.935C5508.17 720.37 5511.58 707.025 5511.58 691.901C5511.58 673.811 5506.84 657.798 5497.35 643.86C5488.16 629.625 5476 616.726 5460.87 605.16C5445.75 593.298 5428.4 582.178 5408.83 571.798C5389.55 561.419 5369.83 551.04 5349.67 540.661C5329.5 530.281 5309.63 519.457 5290.06 508.188C5270.79 496.623 5253.59 483.871 5238.46 469.934C5223.34 455.699 5211.03 439.982 5201.54 422.782C5192.35 405.286 5187.75 385.269 5187.75 362.731C5187.75 340.193 5191.9 319.286 5200.21 300.011C5208.81 280.735 5221.26 264.128 5237.57 250.19C5253.88 235.956 5273.9 224.835 5297.62 216.829C5321.64 208.822 5349.08 204.818 5379.92 204.818C5407.79 204.818 5432.7 207.784 5454.65 213.715C5476.59 219.646 5495.87 228.394 5512.47 239.959C5529.08 251.525 5543.17 265.759 5554.73 282.663C5566.3 299.566 5575.64 319.138 5582.76 341.379L5532.05 364.51C5526.12 346.421 5518.55 329.962 5509.36 315.135C5500.17 300.011 5489.19 287.111 5476.44 276.435C5463.69 265.759 5448.86 257.604 5431.96 251.97C5415.35 246.039 5396.52 243.073 5375.47 243.073C5356.79 243.073 5340.48 245.742 5326.54 251.08C5312.6 256.121 5300.89 262.942 5291.4 271.542C5282.2 279.845 5275.23 289.335 5270.49 300.011C5266.04 310.39 5263.82 321.066 5263.82 332.038C5263.82 347.459 5268.56 361.693 5278.05 374.741C5287.54 387.493 5300.14 399.651 5315.86 411.217C5331.58 422.486 5349.37 433.458 5369.24 444.134C5389.41 454.81 5409.87 465.634 5430.63 476.606C5451.38 487.578 5471.7 498.995 5491.57 510.857C5511.73 522.719 5529.67 535.768 5545.39 550.002C5561.11 563.94 5573.71 579.36 5583.2 596.264C5592.69 612.87 5597.44 631.553 5597.44 652.312C5597.44 675.739 5592.99 697.832 5584.09 718.59C5575.19 739.052 5561.85 756.993 5544.06 772.414C5526.26 787.538 5504.17 799.548 5477.78 808.445C5451.38 817.341 5420.69 821.79 5385.7 821.79C5357.23 821.79 5331.88 818.676 5309.63 812.448C5287.39 806.221 5267.67 797.176 5250.47 785.314C5233.57 773.452 5219.04 759.069 5206.88 742.166C5194.72 724.966 5184.79 705.394 5177.08 683.449L5230.01 661.653C5236.24 680.929 5244.54 698.128 5254.92 713.252C5265.6 728.376 5277.9 741.276 5291.84 751.952C5305.78 762.331 5321.2 770.338 5338.1 775.973C5355.3 781.607 5373.54 784.424 5392.82 784.424Z" fill="black"/>
<path d="M772.41 23.9056C752.276 35.9056 734.943 46.4389 734.01 47.2389C732.543 48.5723 732.41 124.039 733.076 481.772C733.876 867.372 733.876 915.639 732.01 924.039C726.81 948.439 709.343 968.172 686.676 975.506C674.676 979.506 654.81 979.372 643.076 975.372C621.076 967.772 605.743 950.439 601.743 928.439C599.476 916.572 599.21 264.039 601.476 257.772C604.943 247.906 616.41 240.972 626.81 242.572C634.143 243.639 642.41 250.839 644.41 257.639C645.21 260.839 645.743 308.572 645.743 391.906C645.743 476.706 646.276 522.972 647.076 526.172C650.143 537.106 660.543 544.572 672.943 544.572C685.21 544.572 692.943 539.772 697.876 529.239C700.276 524.172 700.41 516.839 700.41 365.106V206.306L663.876 184.172L627.343 162.172L617.476 167.772C612.143 170.839 592.276 182.572 573.476 193.772L539.076 214.306V573.906C539.076 967.239 539.61 938.306 531.743 953.906C521.076 974.839 495.076 988.706 469.61 986.706C438.676 984.439 413.21 963.106 407.21 934.172C405.21 924.572 405.076 480.839 407.076 473.639C412.276 454.839 436.41 450.439 446.81 466.306L450.41 471.772L450.676 596.839C451.076 719.772 451.076 722.039 453.743 727.239C455.21 730.172 458.943 734.172 462.01 736.172C466.81 739.506 468.81 739.906 477.876 739.906C487.21 739.906 488.81 739.506 494.01 735.906C497.076 733.639 500.943 729.506 502.41 726.572C505.076 721.372 505.076 718.172 505.476 569.906C505.61 486.706 505.343 417.906 504.81 417.106C503.476 415.239 434.943 376.172 432.943 376.172C432.276 376.172 412.276 387.772 388.676 401.906L345.743 427.639V647.772C345.743 779.506 345.21 872.306 344.41 878.972C342.943 892.572 338.676 902.306 330.543 910.972C311.61 931.239 277.476 935.639 250.543 921.639C240.143 916.172 226.143 902.172 220.81 891.772C212.276 875.772 212.41 876.972 212.41 779.906V691.906L215.476 686.572C224.01 671.506 243.476 671.106 253.343 685.772C256.81 690.839 256.543 682.706 256.41 801.506C256.41 832.306 256.943 853.506 257.743 857.372C260.81 870.972 271.476 878.706 285.876 877.639C294.943 876.972 301.743 872.439 306.676 863.772L309.743 858.572V749.239L309.61 639.906L291.476 629.906C281.343 624.439 263.876 614.572 252.543 608.172C234.943 598.306 231.343 596.706 228.81 597.772C225.61 599.239 170.41 633.506 156.143 642.839L147.076 648.839V777.239V905.772L159.476 919.506C202.276 966.706 258.81 1008.31 316.41 1034.57C368.943 1058.71 422.543 1073.11 483.076 1079.37C505.876 1081.77 561.076 1081.37 585.476 1078.71C659.476 1070.71 728.41 1048.17 792.41 1011.11C937.21 927.372 1037.34 784.972 1065.08 623.239C1078.68 543.639 1072.54 454.572 1048.41 379.772C1024.81 306.972 988.41 242.972 941.076 190.572L935.076 184.039V223.639V263.372L942.543 276.039C982.943 344.839 1006.01 434.306 1002.41 509.906C1000.81 546.572 995.743 569.639 984.676 591.906C964.01 633.506 928.943 653.106 882.41 648.572C837.876 644.439 806.276 618.839 793.61 576.572C790.543 566.572 790.543 566.039 789.61 441.239C788.276 242.839 788.276 105.772 789.743 97.7723C792.143 85.1056 800.01 77.9056 811.743 77.9056C822.943 77.9056 831.61 85.3723 833.876 96.7056C834.41 99.9056 834.943 157.772 835.076 225.239V348.039L839.476 355.239C846.943 367.906 862.41 374.706 876.41 371.506C890.01 368.306 899.343 358.839 901.743 345.639C902.543 341.239 902.81 311.106 902.41 267.906C902.143 228.972 901.743 165.372 901.743 126.572V55.9056L896.01 52.7056C888.81 48.5723 839.076 18.3056 824.41 9.10561C818.143 5.10561 812.143 1.90561 811.076 2.03894C810.01 2.03894 792.543 11.9056 772.41 23.9056Z" fill="black"/>
<path d="M139.572 567.535C35.9686 646.035 -24.058 592.522 17.0761 410.535C50.0761 264.535 148.677 149.365 233.076 95.0351C295.076 49.0351 416.759 -1.18082 517.119 0.535026C588.076 -2.46487 640.576 7.29042 702.076 26.2904V95.0351C639.076 75.5351 605.841 68.052 517.119 66.5352C428.397 65.0183 333.671 94.3289 267.576 153.535C209.576 205.49 168.673 258.577 159.576 276.535C121.076 352.535 157.973 461.535 282.013 344.535L389.076 249.035L345.076 204.535L521.473 164.035L471.576 337.535L434.076 296.035L139.572 567.535Z" fill="#E79204"/>
</g>
<defs>
<filter id="filter0_d_445_56" x="0" y="0" width="5601.44" height="1088.96" filterUnits="userSpaceOnUse" color-interpolation-filters="sRGB">
<feFlood flood-opacity="0" result="BackgroundImageFix"/>
<feColorMatrix in="SourceAlpha" type="matrix" values="0 0 0 0 0 0 0 0 0 0 0 0 0 0 0 0 0 0 127 0" result="hardAlpha"/>
<feOffset dy="4"/>
<feGaussianBlur stdDeviation="2"/>
<feComposite in2="hardAlpha" operator="out"/>
<feColorMatrix type="matrix" values="0 0 0 0 0 0 0 0 0 0 0 0 0 0 0 0 0 0 0.25 0"/>
<feBlend mode="normal" in2="BackgroundImageFix" result="effect1_dropShadow_445_56"/>
<feBlend mode="normal" in="SourceGraphic" in2="effect1_dropShadow_445_56" result="shape"/>
</filter>
</defs>
</svg>
