<svg width="218" height="56" viewBox="0 0 218 56" fill="none" xmlns="http://www.w3.org/2000/svg">
<g clip-path="url(#clip0_13_5)">
<path d="M27.3477 44.6316V37.6822H3.41236V31.5675H0V41.1486H23.9354V44.6316H27.3477Z" fill="#86776B"/>
<path d="M15.0188 29.9614L38.5707 0.00600433H26.3677L4.27689 27.286L6.91203 29.4877L27.9798 3.4724H31.4795L7.92611 33.4278H38.1799L23.9353 50.1101V55.0187H36.1562V44.1789H33.5166L45.656 29.9614H15.0188ZM32.7438 51.5523H27.3477V51.4034L32.7438 45.0842V51.5523Z" fill="#86776B"/>
<path d="M61.9614 19.4449H77.1075V34.1361H82.2934V0.422585H77.1075V14.4581H61.9614V0.422585H56.7755V34.1361H61.9614V19.4449Z" fill="#86776B"/>
<path d="M102.038 9.99766L102.636 8.24867L103.178 9.933L112.534 34.1361H118.315L104.99 0.422585H100.387L87.0618 34.1361H92.6578L102.038 9.99766Z" fill="#86776B"/>
<path d="M143.415 23.9911L143.42 24.152L127.467 0.422585H123.083V34.1361H128.269V10.5962L144.221 34.1361H148.601V0.422585H143.415V23.9911Z" fill="#86776B"/>
<path d="M179.178 2.42272C176.862 1.09481 173.956 0.422585 170.544 0.422585H159.263V34.1361H170.544C173.989 34.1361 176.91 33.4639 179.224 32.136C181.579 30.7855 183.36 28.8049 184.518 26.2484C185.643 23.7625 186.214 20.7458 186.214 17.2794C186.214 13.813 185.635 10.7917 184.492 8.30432C183.318 5.75076 181.53 3.77168 179.178 2.42272ZM179.619 10.342C180.461 12.07 180.889 14.404 180.889 17.2794C180.889 20.1547 180.467 22.4571 179.637 24.2031C178.83 25.898 177.678 27.1101 176.118 27.9101C174.512 28.7328 172.497 29.1493 170.127 29.1493H164.448V5.40938H170.127C172.494 5.40938 174.5 5.82595 176.09 6.64706C177.641 7.44862 178.794 8.65772 179.616 10.342H179.619Z" fill="#86776B"/>
<path d="M217.176 20.7758C216.623 19.6179 215.845 18.6449 214.862 17.8824C213.928 17.1575 212.839 16.5665 211.63 16.1214C210.492 15.7048 209.31 15.3319 208.117 15.0115L204.391 14.1122C202.577 13.6806 201.169 13.0911 200.206 12.3587C199.403 11.7512 199.014 10.7962 199.014 9.44123C199.014 8.53892 199.236 7.81857 199.693 7.23808C200.198 6.59743 200.851 6.10718 201.69 5.74023C202.548 5.36577 203.541 5.17478 204.645 5.17478C206.663 5.17478 208.395 5.64248 209.79 6.56435C211.174 7.4787 212.167 8.89233 212.831 10.8834L213.34 12.4144L217.762 8.82164L217.467 8.04716C216.487 5.47255 214.847 3.46038 212.595 2.0663C210.378 0.694783 207.719 0 204.691 0C202.829 0 201.039 0.351903 199.371 1.04669C197.643 1.76553 196.245 2.85733 195.22 4.29051C194.173 5.74926 193.643 7.5599 193.643 9.67433C193.643 11.2158 193.905 12.5557 194.42 13.6566C194.937 14.7634 195.681 15.7123 196.629 16.4763C197.532 17.2027 198.556 17.7907 199.676 18.2208C200.737 18.6298 201.861 18.9697 203.014 19.2284L206.281 19.9758C207.813 20.3653 209.106 20.7879 210.12 21.2285C211.011 21.6165 211.683 22.1113 212.117 22.6978C212.521 23.2452 212.725 24.0272 212.725 25.0227C212.725 26.0784 212.483 26.898 211.981 27.5252C211.451 28.1884 210.765 28.6545 209.888 28.9463C208.927 29.2666 207.847 29.429 206.678 29.429C205.508 29.429 204.195 29.2035 202.867 28.7583C201.575 28.3252 200.397 27.6229 199.362 26.671C198.367 25.7536 197.627 24.4768 197.165 22.8722L196.673 21.1668L192.484 24.9129L192.735 25.6348C193.473 27.7447 194.577 29.4877 196.017 30.8126C197.442 32.124 199.113 33.0894 200.986 33.6835C202.813 34.2624 204.743 34.5557 206.724 34.5557C208.705 34.5557 210.66 34.1948 212.33 33.4819C214.053 32.7466 215.441 31.6563 216.452 30.2396C217.482 28.7959 218.005 27.0093 218.005 24.928C218.005 23.3249 217.726 21.9263 217.177 20.7728L217.176 20.7758Z" fill="#86776B"/>
<path d="M62.5443 45.305C62.565 45.296 62.5858 45.2869 62.605 45.2764C62.9544 45.1065 63.2356 44.8599 63.4399 44.5441C63.6471 44.2238 63.7522 43.8373 63.7522 43.3967C63.7522 42.9125 63.6412 42.4945 63.4207 42.1561C63.203 41.8193 62.9025 41.5606 62.531 41.3832C62.1698 41.2133 61.7627 41.1261 61.3216 41.1261H58.2677V48.1065H59.7228V45.5726H60.3905C60.725 45.5726 60.9071 45.6253 61.0003 45.6704C61.1188 45.726 61.218 45.8283 61.3053 45.9862L62.4955 48.1065H64.1934L62.793 45.6734C62.7175 45.532 62.6346 45.4102 62.5428 45.3065L62.5443 45.305ZM61.7864 42.5997C61.9403 42.6493 62.0588 42.7321 62.1491 42.8539C62.2394 42.9757 62.2808 43.1546 62.2808 43.3967C62.2808 43.6178 62.2379 43.7862 62.152 43.8975C62.0602 44.0163 61.9403 44.1005 61.7834 44.1531C61.5999 44.2148 61.3971 44.2448 61.1854 44.2448H59.7273V42.5095H61.1854C61.4 42.5095 61.6028 42.5396 61.7879 42.5982L61.7864 42.5997Z" fill="#86776B"/>
<path d="M66.105 48.1065H71.0122V46.7215H67.5602V45.2223H70.4171V43.8478H67.5602V42.5095H71.0122V41.1261H66.105V48.1065Z" fill="#86776B"/>
<path d="M75.2346 41.1261L72.4664 48.1065H74.0104L74.6943 46.3396H76.9813L77.6608 48.1065H79.2433L76.4751 41.1261H75.2361H75.2346ZM76.4514 44.9636H75.2242L75.8282 43.4012L75.8385 43.3696L76.4499 44.9636H76.4514Z" fill="#86776B"/>
<path d="M82.468 41.1261H81.0114V48.1065H85.7335V46.7215H82.468V41.1261Z" fill="#86776B"/>
<path d="M92.1693 48.1065H97.0765V46.7215H93.6244V45.2223H96.4814V43.8478H93.6244V42.5095H97.0765V41.1261H92.1693V48.1065Z" fill="#86776B"/>
<path d="M103.738 44.5711C103.536 44.4147 103.305 44.2929 103.053 44.2057C102.828 44.1275 102.599 44.0583 102.369 43.9997L101.679 43.8313C101.368 43.7471 101.118 43.6388 100.935 43.5125C100.85 43.4538 100.753 43.3531 100.753 43.0944C100.753 42.9666 100.782 42.8674 100.841 42.7892C100.914 42.696 101.013 42.6223 101.146 42.5651C101.285 42.5035 101.45 42.4734 101.635 42.4734C101.987 42.4734 102.28 42.5501 102.533 42.708C102.773 42.8584 102.951 43.1065 103.075 43.4674L103.223 43.8959L104.44 42.914L104.348 42.6884C104.129 42.1501 103.774 41.7351 103.291 41.4539C102.822 41.1817 102.271 41.0433 101.654 41.0433C101.247 41.0433 100.862 41.12 100.51 41.2719C100.147 41.4298 99.8452 41.6659 99.6142 41.9742C99.3729 42.2945 99.2515 42.6884 99.2515 43.1441C99.2515 43.499 99.3167 43.8042 99.4469 44.0523C99.5743 44.2944 99.7445 44.4989 99.9562 44.6599C100.153 44.8102 100.375 44.932 100.613 45.0207C100.834 45.1035 101.052 45.1726 101.274 45.2283L101.861 45.3501C102.119 45.4087 102.35 45.4779 102.548 45.5501C102.705 45.6087 102.824 45.6854 102.898 45.7756C102.96 45.8508 102.991 45.9696 102.991 46.1305C102.991 46.2914 102.958 46.4027 102.889 46.4839C102.809 46.5801 102.701 46.6508 102.562 46.6974C102.211 46.8162 101.77 46.8087 101.318 46.6583C101.084 46.5801 100.868 46.4538 100.676 46.2824C100.496 46.123 100.375 45.908 100.304 45.6238L100.178 45.1215L99.0014 46.138L99.071 46.3456C99.219 46.7892 99.4499 47.1531 99.7578 47.4298C100.058 47.6989 100.414 47.8989 100.816 48.0222C101.204 48.141 101.611 48.2012 102.024 48.2012C102.47 48.2012 102.877 48.12 103.235 47.9606C103.607 47.7952 103.906 47.5546 104.12 47.2463C104.342 46.9305 104.453 46.5471 104.453 46.1095C104.453 45.7546 104.387 45.4463 104.254 45.1922C104.123 44.9426 103.95 44.7335 103.735 44.5711H103.738Z" fill="#86776B"/>
<path d="M105.931 42.5095H107.896V48.1065H109.342V42.5095H111.296V41.1261H105.931V42.5095Z" fill="#86776B"/>
<path d="M114.652 41.1261L111.884 48.1065H113.428L114.112 46.3396H116.399L117.078 48.1065H118.661L115.891 41.1261H114.652ZM115.869 44.9636H114.642L115.246 43.4012L115.256 43.3696L115.867 44.9636H115.869Z" fill="#86776B"/>
<path d="M119.248 42.5095H121.21V48.1065H122.657V42.5095H124.611V41.1261H119.248V42.5095Z" fill="#86776B"/>
<path d="M126.496 48.1065H131.404V46.7215H127.952V45.2223H130.808V43.8478H127.952V42.5095H131.404V41.1261H126.496V48.1065Z" fill="#86776B"/>
</g>
<defs>
<clipPath id="clip0_13_5">
<rect width="218.005" height="55.0202" fill="white"/>
</clipPath>
</defs>
</svg>
