<svg width="200" height="200" viewBox="0 0 200 200" fill="none" xmlns="http://www.w3.org/2000/svg">
<path d="M167.6 62.4001H32.4C25.4 62.4001 20 56.8001 20 50.0001C20 43.2001 25.6 37.6001 32.4 37.6001H167.4C174.4 37.6001 179.8 43.2001 179.8 50.0001C179.8 56.8001 174.4 62.4001 167.6 62.4001Z" fill="#BAC914"/>
<path d="M167.6 112.4H32.4C25.4 112.4 20 106.8 20 100C20 93.2001 25.6 87.6001 32.4 87.6001H167.4C174.4 87.6001 179.8 93.2001 179.8 100C179.8 106.8 174.4 112.4 167.6 112.4Z" fill="#BAC914"/>
<path d="M167.6 162.4H32.4C25.4 162.4 20 156.8 20 150C20 143.2 25.6 137.6 32.4 137.6H167.4C174.4 137.6 179.8 143.2 179.8 150C179.8 156.8 174.4 162.4 167.6 162.4Z" fill="#BAC914"/>
</svg>
