<svg width="11" height="11" viewBox="0 0 11 11" fill="none" xmlns="http://www.w3.org/2000/svg">
<path d="M9.77914 8.40082L9.67525 8.30915C9.38052 8.04656 9.12255 7.74542 8.90831 7.41387C8.67432 6.95632 8.53408 6.45664 8.49581 5.94415V4.43471C8.49457 4.25136 8.47821 4.06842 8.44692 3.88776C7.92934 3.78138 7.46443 3.49941 7.13089 3.08958C6.79735 2.67976 6.61568 2.16727 6.61664 1.63887V1.44637C6.29762 1.28937 5.95486 1.18613 5.6022 1.14082V0.755817C5.6022 0.647631 5.55922 0.543876 5.48272 0.467376C5.40622 0.390877 5.30246 0.3479 5.19428 0.3479C5.08609 0.3479 4.98234 0.390877 4.90584 0.467376C4.82934 0.543876 4.78636 0.647631 4.78636 0.755817V1.15609C3.99672 1.26749 3.27404 1.66079 2.75173 2.26341C2.22943 2.86602 1.94278 3.63725 1.94469 4.43471V5.94415C1.90643 6.45664 1.76618 6.95632 1.5322 7.41387C1.32163 7.74459 1.06781 8.04568 0.777473 8.30915L0.673584 8.40082V9.26248H9.77914V8.40082Z" fill="#4F4F4F"/>
<path d="M5.24162 10.28C5.4341 10.2755 5.61881 10.2032 5.76308 10.0757C5.90735 9.9482 6.00188 9.77379 6.02995 9.58331H4.42273C4.4516 9.77896 4.55055 9.95747 4.70118 10.0856C4.85182 10.2138 5.04387 10.2828 5.24162 10.28Z" fill="#4F4F4F"/>
<path d="M8.90827 3.16664C9.75204 3.16664 10.436 2.48263 10.436 1.63886C10.436 0.795093 9.75204 0.111084 8.90827 0.111084C8.0645 0.111084 7.38049 0.795093 7.38049 1.63886C7.38049 2.48263 8.0645 3.16664 8.90827 3.16664Z" fill="#4F4F4F"/>
<path fill-rule="evenodd" clip-rule="evenodd" d="M4.53321 9.88887C4.47672 9.79619 4.43883 9.69242 4.42273 9.58331H6.02995C6.01388 9.69236 5.97603 9.79614 5.91953 9.88887C5.87734 9.95811 5.82475 10.0212 5.76308 10.0757C5.61881 10.2032 5.4341 10.2755 5.24162 10.28C5.04387 10.2828 4.85182 10.2138 4.70118 10.0856C4.63455 10.0289 4.57803 9.96239 4.53321 9.88887ZM4.94686 9.88887C5.03202 9.94562 5.1327 9.97571 5.23593 9.97447C5.33268 9.97199 5.42624 9.94207 5.506 9.88887H4.94686ZM9.47198 8.53729C9.15675 8.25642 8.88082 7.93433 8.65167 7.57971L8.64329 7.56674L8.63626 7.55299C8.38375 7.05921 8.2324 6.51997 8.1911 5.9669L8.19025 5.95554V4.43581C8.18954 4.33494 8.18379 4.23421 8.17304 4.134C7.67217 3.98616 7.22568 3.69012 6.8939 3.28246C6.51693 2.81926 6.31113 2.24035 6.31108 1.64324C6.07199 1.54405 5.82053 1.47694 5.56325 1.44388L5.29664 1.40962V0.755817C5.29664 0.72867 5.28586 0.702634 5.26666 0.683437C5.24746 0.66424 5.22143 0.653456 5.19428 0.653456C5.16713 0.653456 5.14109 0.66424 5.1219 0.683437C5.1027 0.702633 5.09192 0.728669 5.09192 0.755817V1.42157L4.82904 1.45865C4.11245 1.55974 3.45662 1.91667 2.98263 2.46353C2.50865 3.0104 2.24851 3.71028 2.25025 4.43397L2.25025 5.95554L2.2494 5.9669C2.2081 6.51997 2.05676 7.05921 1.80424 7.55299L1.79768 7.56582L1.78994 7.57798C1.56476 7.93166 1.29331 8.25366 0.982809 8.53543L0.979654 8.53829L0.97914 8.95693H9.47358L9.47309 8.53827L9.47198 8.53729ZM9.77914 8.40082L9.67525 8.30915C9.38052 8.04656 9.12255 7.74542 8.90831 7.41387C8.67432 6.95632 8.53408 6.45664 8.49581 5.94415V4.43471C8.49457 4.25136 8.47821 4.06842 8.44692 3.88776C7.92934 3.78138 7.46443 3.49941 7.13089 3.08958C6.79735 2.67976 6.61568 2.16727 6.61664 1.63887V1.44637C6.29762 1.28937 5.95486 1.18613 5.6022 1.14082V0.755817C5.6022 0.647631 5.55922 0.543876 5.48272 0.467376C5.40622 0.390877 5.30246 0.3479 5.19428 0.3479C5.08609 0.3479 4.98234 0.390877 4.90584 0.467376C4.82934 0.543876 4.78636 0.647631 4.78636 0.755817V1.15609C3.99672 1.26749 3.27404 1.66079 2.75173 2.26341C2.22943 2.86602 1.94278 3.63725 1.94469 4.43471V5.94415C1.90643 6.45664 1.76618 6.95632 1.5322 7.41387C1.32163 7.74459 1.06781 8.04568 0.777473 8.30915L0.673584 8.40082V9.26248H9.77914V8.40082ZM8.90827 2.86108C9.58329 2.86108 10.1305 2.31388 10.1305 1.63886C10.1305 0.963847 9.58329 0.41664 8.90827 0.41664C8.23326 0.41664 7.68605 0.963847 7.68605 1.63886C7.68605 2.31388 8.23326 2.86108 8.90827 2.86108ZM10.436 1.63886C10.436 2.48263 9.75204 3.16664 8.90827 3.16664C8.0645 3.16664 7.38049 2.48263 7.38049 1.63886C7.38049 0.795093 8.0645 0.111084 8.90827 0.111084C9.75204 0.111084 10.436 0.795093 10.436 1.63886Z" fill="#4F4F4F"/>
</svg>
