<svg width="12" height="11" viewBox="0 0 12 11" fill="none" xmlns="http://www.w3.org/2000/svg">
<path d="M10.8334 3.32601L9.89207 4.26733C9.7961 4.3633 9.64092 4.3633 9.54495 4.26733L7.27844 2.00081C7.18247 1.90484 7.18247 1.74966 7.27844 1.65369L8.21975 0.712372C8.60159 0.330536 9.22233 0.330536 9.60621 0.712372L10.8334 1.93956C11.2173 2.32139 11.2173 2.94213 10.8334 3.32601ZM6.46984 2.46228L1.1078 7.82432L0.67492 10.3052C0.615705 10.6401 0.907697 10.9301 1.24257 10.8729L3.72348 10.438L9.08552 5.07592C9.18149 4.97995 9.18149 4.82477 9.08552 4.7288L6.81901 2.46228C6.721 2.36631 6.56581 2.36631 6.46984 2.46228ZM3.20075 7.36489C3.08845 7.25259 3.08845 7.0729 3.20075 6.9606L6.34529 3.81607C6.45759 3.70376 6.63728 3.70376 6.74958 3.81607C6.86189 3.92837 6.86189 4.10806 6.74958 4.22036L3.60505 7.36489C3.49275 7.4772 3.31306 7.4772 3.20075 7.36489ZM2.46363 9.08213H3.44374V9.82335L2.12671 10.0541L1.49168 9.41905L1.72242 8.10202H2.46363V9.08213Z" fill="white"/>
</svg>
