<svg width="182" height="182" viewBox="0 0 182 182" fill="none" xmlns="http://www.w3.org/2000/svg">
<path d="M115.377 54.8047C116.444 52.3936 117.877 49.7647 119.633 46.998C122.566 42.3736 126.404 37.3558 130.957 32.3047" stroke="#666766" stroke-width="8" stroke-miterlimit="10"/>
<path d="M147.206 55.7534L125.689 34.2356C123.738 32.285 121.092 31.1892 118.333 31.189H93.9218C92.5558 31.1888 91.2031 31.4578 89.941 31.9806C88.6789 32.5033 87.5322 33.2696 86.5663 34.2356L2.9663 117.833C1.13813 119.662 0.111084 122.141 0.111084 124.727C0.111084 127.312 1.13813 129.792 2.9663 131.62L49.8196 178.476C51.6479 180.304 54.1275 181.331 56.713 181.331C59.2984 181.331 61.778 180.304 63.6063 178.476L147.204 94.8779C149.155 92.9269 150.251 90.2811 150.251 87.5223V63.1112C150.252 61.7448 149.984 60.3916 149.461 59.129C148.939 57.8665 148.173 56.7194 147.206 55.7534ZM107.166 74.2734C105.973 73.0798 105.027 71.6629 104.381 70.1036C103.735 68.5442 103.403 66.8729 103.403 65.1852C103.403 63.4974 103.736 61.8262 104.382 60.267C105.028 58.7078 105.975 57.2911 107.169 56.0979C108.362 54.9046 109.779 53.9581 111.338 53.3124C112.898 52.6667 114.569 52.3345 116.257 52.3347C117.945 52.3349 119.616 52.6675 121.175 53.3136C122.734 53.9597 124.151 54.9065 125.344 56.1001C126.537 57.2936 127.484 58.7106 128.13 60.2699C128.775 61.8293 129.107 63.5006 129.107 65.1883C129.107 66.8761 128.774 68.5473 128.128 70.1065C127.482 71.6657 126.535 73.0824 125.342 74.2756C124.148 75.4689 122.731 76.4154 121.172 77.0611C119.613 77.7068 117.941 78.039 116.254 78.0388C114.566 78.0386 112.895 77.706 111.335 77.0599C109.776 76.4138 108.36 75.467 107.166 74.2734Z" fill="#A47659"/>
<path d="M66.2996 138.609C56.8152 138.609 49.3863 132.78 49.3863 125.34H56.2441C56.2441 128.816 60.8485 131.751 66.2996 131.751C70.3774 131.751 77.2796 130.4 77.2796 125.34C77.2796 119.238 68.133 118.929 66.2996 118.929C56.2307 118.929 48.9241 113.349 48.9241 105.66C48.9241 97.7244 55.9063 92.3911 66.2996 92.3911C75.7841 92.3911 83.213 98.22 83.213 105.66H76.3552C76.3552 102.184 71.7507 99.2489 66.2996 99.2489C61.4485 99.2489 55.7818 100.929 55.7818 105.66C55.7818 109.869 61.073 112.071 66.2996 112.071C77.1352 112.071 84.1374 117.28 84.1374 125.34C84.1374 133.278 76.9707 138.609 66.2996 138.609Z" fill="#666766"/>
<path d="M62.7418 87.7246H69.8574V143.28H62.7418V87.7246Z" fill="#666766"/>
<path d="M130.957 32.3024C132.557 30.5269 134.246 28.7491 136.013 26.9802C153.1 9.89354 171.204 0.297981 176.453 5.54687C181.702 10.7958 172.104 28.9002 155.02 45.9869C137.935 63.0735 119.829 72.6691 114.58 67.4202C112.346 65.1869 112.802 60.6246 115.377 54.8046" stroke="#666766" stroke-width="8" stroke-miterlimit="10"/>
</svg>
