<svg width="200" height="200" viewBox="0 0 200 200" fill="none" xmlns="http://www.w3.org/2000/svg">
<path d="M171.721 177.24H27.6286C25.0749 177.24 22.6259 176.225 20.8201 174.42C19.0144 172.614 18 170.165 18 167.611V123.892C18 121.339 19.0144 118.89 20.8201 117.084C22.6259 115.278 25.0749 114.264 27.6286 114.264C30.1822 114.264 32.6313 115.278 34.437 117.084C36.2427 118.89 37.2571 121.339 37.2571 123.892V157.985H162.095V123.892C162.095 121.339 163.109 118.89 164.915 117.084C166.721 115.278 169.17 114.264 171.724 114.264C174.277 114.264 176.726 115.278 178.532 117.084C180.338 118.89 181.352 121.339 181.352 123.892V167.611C181.35 170.165 180.335 172.613 178.529 174.418C176.723 176.224 174.275 177.238 171.721 177.24Z" fill="white"/>
<path d="M142.017 88.7508L99.6149 46.0236L57.2131 88.7508C53.3377 92.5224 47.1773 92.4685 43.3674 88.6295C39.5576 84.7904 39.504 78.5828 43.2471 74.6776L92.6319 24.914C96.4889 21.0287 102.741 21.0287 106.598 24.914L155.983 74.6776C158.55 77.1764 159.58 80.8768 158.676 84.3567C157.772 87.8364 155.075 90.5539 151.622 91.4648C148.169 92.3755 144.496 91.338 142.017 88.7508Z" fill="white"/>
<rect x="90.1552" y="45.6572" width="18.9259" height="93.4468" rx="9.46297" fill="white"/>
</svg>
