<svg width="12" height="12" viewBox="0 0 12 12" fill="none" xmlns="http://www.w3.org/2000/svg">
<path d="M6.22164 5.64434C4.88713 5.29748 4.45797 4.93887 4.45797 4.38037C4.45797 3.73957 5.05174 3.29277 6.04527 3.29277C7.09172 3.29277 7.47973 3.79248 7.515 4.52734H8.81424C8.77309 3.51617 8.1558 2.5873 6.92711 2.28748V1H5.16344V2.26984C4.02293 2.51676 3.10582 3.2575 3.10582 4.39213C3.10582 5.75016 4.22869 6.42623 5.86891 6.82012C7.33863 7.17285 7.63258 7.6902 7.63258 8.23693C7.63258 8.64258 7.34451 9.28926 6.04527 9.28926C4.83422 9.28926 4.35803 8.7484 4.29336 8.05469H3C3.07055 9.34217 4.03469 10.0653 5.16344 10.3063V11.582H6.92711V10.3181C8.0735 10.1005 8.98473 9.43623 8.98473 8.23105C8.98473 6.56145 7.55615 5.99119 6.22164 5.64434Z" fill="#e79204"/>
</svg>
