<svg width="15" height="14" viewBox="0 0 15 14" fill="none" xmlns="http://www.w3.org/2000/svg">
<path d="M6.07694 9.79222L7.17361 10.8889L11.0625 7L7.17361 3.11111L6.07694 4.20778L8.08361 6.22222H0.5625V7.77778H8.08361L6.07694 9.79222ZM13.0069 0H2.11806C1.7055 0 1.30983 0.163888 1.01811 0.455612C0.726388 0.747335 0.5625 1.143 0.5625 1.55556V4.66667H2.11806V1.55556H13.0069V12.4444H2.11806V9.33333H0.5625V12.4444C0.5625 12.857 0.726388 13.2527 1.01811 13.5444C1.30983 13.8361 1.7055 14 2.11806 14H13.0069C13.8625 14 14.5625 13.3 14.5625 12.4444V1.55556C14.5625 0.7 13.8625 0 13.0069 0Z" fill="#0e0e0f"/>
</svg>
