<svg width="13" height="12" viewBox="0 0 13 12" fill="none" xmlns="http://www.w3.org/2000/svg">
<path d="M6.56258 0.166656C3.34608 0.166656 0.729248 2.78349 0.729248 5.99999V8.41674C0.729248 9.01407 1.2525 9.49999 1.89591 9.49999H2.47925C2.63396 9.49999 2.78233 9.43853 2.89173 9.32914C3.00112 9.21974 3.06258 9.07137 3.06258 8.91666V5.91657C3.06258 5.76186 3.00112 5.61349 2.89173 5.50409C2.78233 5.3947 2.63396 5.33324 2.47925 5.33324H1.94958C2.27391 3.07574 4.21641 1.33332 6.56258 1.33332C8.90875 1.33332 10.8512 3.07574 11.1756 5.33324H10.6459C10.4912 5.33324 10.3428 5.3947 10.2334 5.50409C10.124 5.61349 10.0626 5.76186 10.0626 5.91657V9.49999C10.0626 10.1434 9.53933 10.6667 8.89592 10.6667H7.72925V10.0833H5.39592V11.8333H8.89592C10.1827 11.8333 11.2292 10.7868 11.2292 9.49999C11.8727 9.49999 12.3959 9.01407 12.3959 8.41674V5.99999C12.3959 2.78349 9.77908 0.166656 6.56258 0.166656Z" fill="#A47659"/>
</svg>
