<?xml version="1.0" encoding="UTF-8"?>
<svg width="24px" height="24px" viewBox="0 0 24 24" version="1.1" xmlns="http://www.w3.org/2000/svg">
    <g stroke="none" stroke-width="1" fill="none" fill-rule="evenodd">
        <path d="M12 0C5.373 0 0 5.373 0 12s5.373 12 12 12 12-5.373 12-12S18.627 0 12 0zm5.562 8.248-1.97 9.341c-.145.658-.537.818-1.084.508l-3-2.21-1.446 1.394c-.14.18-.357.223-.535.223l.19-2.72 5.18-4.686c.217-.19-.047-.297-.335-.107l-6.4 4.02-2.76-.918c-.6-.2-.613-.6.126-.89l10.8-4.16c.5-.19.94.12.77.89z" fill="#FFFFFF"/>
    </g>
</svg> 