<svg width="200" height="200" viewBox="0 0 200 200" fill="none" xmlns="http://www.w3.org/2000/svg">
<g clip-path="url(#clip0_115_90)">
<path d="M155.057 51.1805L160.347 43.0098L163.45 46.7299C169.054 53.4247 173.436 61.0202 176.405 69.1808C178.829 75.8512 180.566 86.8842 180.752 95.5851L190.735 90.8463L199.801 96.9711C199.66 84.9042 196.801 68.776 192.862 59.2303C188.212 47.9216 181.381 37.601 172.746 28.8352L170.806 26.864L175.802 19.1465L142.461 19.4655L155.057 51.1805Z" fill="#e79204"/>
<path d="M75.2152 23.736C83.4313 20.5728 92.1422 18.8274 100.964 18.577C108.169 18.3614 119.397 20.1632 127.879 22.6778L126.376 11.8891L135.112 5.3177C123.378 1.72072 106.883 -0.595871 96.4108 0.134525C84.0199 0.98272 71.9123 4.17165 60.7525 9.52628L58.2431 10.7297L52.3146 3.68091L42.3196 34.9142L76.9337 32.9518L70.6535 25.485L75.2152 23.736Z" fill="#e79204"/>
<path d="M25.9637 103.831L25.6791 99.0304C25.1537 90.3797 26.1558 81.7049 28.6411 73.3895C30.6733 66.5959 35.8736 56.6652 40.9305 49.5218L30.0168 47.5946L26.349 37.4087C19.2398 47.2514 11.8975 61.9474 9.37021 71.9463C6.36315 83.7787 5.71042 96.0697 7.44782 108.145L7.83768 110.86L-0.822021 114.217L26.3401 133.203L35.1364 100.273L25.9637 103.831Z" fill="#e79204"/>
<path d="M87.4285 160.111L88.038 169.776L83.3015 168.559C74.761 166.376 66.6686 162.761 59.3814 157.874C53.4261 153.874 45.4184 145.952 40.0612 139.022L34.8228 148.618L23.8218 148.896C31.1596 158.575 43.1241 169.974 52.028 175.421C62.5606 181.885 74.2649 186.293 86.4987 188.403L89.2479 188.878L89.8192 197.999L116.603 178.499L87.4285 160.111Z" fill="#e79204"/>
<path d="M189.391 104.5L162.563 126.064L172.112 128.48L169.47 132.528C164.717 139.829 158.714 146.269 151.728 151.564C146.014 155.89 135.865 160.921 127.496 163.781L135.17 171.639L132.038 181.995C143.682 178.136 158.42 170.484 166.448 163.854C175.963 156.015 183.849 146.448 189.673 135.676L190.984 133.254L200 135.535L189.391 104.5Z" fill="#e79204"/>
<path d="M155.881 81.0077C156.104 80.4433 156.218 79.8418 156.218 79.2349C156.218 76.0189 153.141 73.5941 149.061 73.5941H147.59C147.651 73.3088 147.685 73.0144 147.685 72.711V67.7869C147.683 65.1153 145.259 63.1006 142.044 63.1006C138.828 63.1006 136.403 65.1161 136.403 67.7885V72.7118C136.403 73.0152 136.439 73.3096 136.499 73.5949H134.941C130.86 73.5949 127.783 76.0197 127.783 79.2357C127.783 79.8606 127.902 80.4551 128.12 81.0086C124.715 81.5571 122.104 84.5075 122.104 88.0655V129.743C122.104 133.689 125.315 136.901 129.261 136.901H154.743C158.69 136.901 161.901 133.689 161.901 129.743V88.0655C161.898 84.5075 159.287 81.5571 155.881 81.0077Z" fill="#e79204"/>
<path d="M134.939 81.5103H149.061C151.145 81.5103 152.852 80.4869 152.852 79.2356C152.852 77.9851 151.146 76.9618 149.061 76.9609H134.939C132.854 76.9609 131.147 77.9843 131.147 79.2356C131.147 80.4861 132.854 81.5103 134.939 81.5103Z" fill="#666766"/>
<path d="M154.741 84.2749H129.259C128.254 84.2779 127.292 84.6784 126.581 85.3889C125.871 86.0993 125.471 87.062 125.468 88.0666V129.744C125.471 130.748 125.871 131.711 126.582 132.421C127.292 133.132 128.254 133.532 129.259 133.536H144.914V117.979C144.914 117.144 145.597 116.462 146.43 116.462H152.307C153.141 116.462 153.823 117.144 153.823 117.979V132.55C153.823 132.581 153.816 132.61 153.815 132.64V133.533H154.741C155.746 133.53 156.709 133.13 157.419 132.419C158.129 131.709 158.53 130.746 158.533 129.741V88.0658C158.531 85.9805 156.826 84.2749 154.741 84.2749ZM139.299 123.476C139.298 123.878 139.138 124.263 138.854 124.547C138.57 124.831 138.185 124.991 137.783 124.992H131.906C131.504 124.991 131.119 124.831 130.835 124.547C130.551 124.263 130.391 123.878 130.39 123.476V117.6C130.39 116.765 131.072 116.084 131.906 116.084H137.782C138.616 116.084 139.298 116.765 139.298 117.6L139.299 123.476ZM139.299 110.681C139.298 111.083 139.138 111.468 138.854 111.752C138.57 112.036 138.185 112.196 137.783 112.198H131.906C131.504 112.196 131.119 112.036 130.835 111.752C130.551 111.468 130.391 111.083 130.39 110.681V104.805C130.39 103.97 131.072 103.289 131.906 103.289H137.782C138.616 103.289 139.298 103.97 139.298 104.805L139.299 110.681ZM139.299 97.4121C139.298 97.8139 139.138 98.1989 138.854 98.483C138.57 98.7671 138.185 98.9272 137.783 98.9283H131.906C131.504 98.9272 131.119 98.7671 130.835 98.483C130.551 98.1989 130.391 97.8139 130.39 97.4121V91.536C130.39 90.7012 131.072 90.019 131.906 90.019H137.782C138.616 90.019 139.298 90.7012 139.298 91.536L139.299 97.4121ZM153.823 110.681C153.822 111.083 153.662 111.468 153.378 111.752C153.093 112.036 152.708 112.196 152.307 112.198H146.43C146.029 112.197 145.644 112.037 145.359 111.753C145.075 111.468 144.915 111.083 144.914 110.681V104.805C144.914 103.97 145.597 103.289 146.43 103.289H152.307C153.141 103.289 153.823 103.97 153.823 104.805V110.681ZM153.823 97.4121C153.822 97.8139 153.662 98.1989 153.378 98.483C153.093 98.7671 152.708 98.9272 152.307 98.9283H146.43C146.029 98.9272 145.644 98.7671 145.36 98.483C145.075 98.1989 144.915 97.8139 144.914 97.4121V91.536C144.914 90.7012 145.597 90.019 146.43 90.019H152.307C153.141 90.019 153.823 90.7012 153.823 91.536V97.4121Z" fill="#666766"/>
<path d="M142.043 74.0338C143.295 74.0338 144.318 73.4393 144.318 72.7119V67.7886C144.318 67.0621 143.295 66.4668 142.043 66.4668C140.793 66.4668 139.769 67.0613 139.769 67.7886V72.7119C139.769 73.4384 140.792 74.0338 142.043 74.0338Z" fill="#666766"/>
<g clip-path="url(#clip1_115_90)">
<path d="M81.881 80.0077C82.1038 79.4433 82.2181 78.8418 82.218 78.2349C82.218 75.0189 79.1413 72.5941 75.061 72.5941H73.5899C73.6506 72.3088 73.6851 72.0144 73.6851 71.711V66.7869C73.6834 64.1153 71.2587 62.1006 68.0443 62.1006C64.8282 62.1006 62.4035 64.1161 62.4035 66.7885V71.7118C62.4035 72.0152 62.4388 72.3096 62.4994 72.5949H60.9406C56.8603 72.5949 53.7828 75.0197 53.7828 78.2357C53.7828 78.8606 53.9017 79.4551 54.1199 80.0086C50.7152 80.5571 48.1035 83.5075 48.1035 87.0655V128.743C48.1035 132.689 51.3146 135.901 55.2613 135.901H80.7428C84.6903 135.901 87.9006 132.689 87.9006 128.743V87.0655C87.8981 83.5075 85.2872 80.5571 81.881 80.0077Z" fill="#e79204"/>
<path d="M60.939 80.5103H75.0611C77.1455 80.5103 78.8519 79.4869 78.8519 78.2356C78.8519 76.9851 77.1463 75.9618 75.0611 75.9609H60.939C58.8538 75.9609 57.1473 76.9843 57.1473 78.2356C57.1473 79.4861 58.8538 80.5103 60.939 80.5103Z" fill="#666766"/>
<path d="M80.7412 83.2749H55.2589C54.2543 83.2779 53.2917 83.6784 52.5814 84.3889C51.8711 85.0993 51.4708 86.062 51.468 87.0666V128.744C51.471 129.748 51.8714 130.711 52.5816 131.421C53.2919 132.132 54.2543 132.532 55.2589 132.536H70.9143V116.979C70.9143 116.144 71.5966 115.462 72.4305 115.462H78.3066C79.1406 115.462 79.8228 116.144 79.8228 116.979V131.55C79.8228 131.581 79.8162 131.61 79.8146 131.64V132.533H80.7412C81.7459 132.53 82.7086 132.13 83.419 131.419C84.1294 130.709 84.5299 129.746 84.5329 128.741V87.0658C84.5312 84.9805 82.8256 83.2749 80.7412 83.2749ZM65.299 122.476C65.2979 122.878 65.1378 123.263 64.8537 123.547C64.5696 123.831 64.1846 123.991 63.7828 123.992H57.9058C57.5041 123.991 57.119 123.831 56.8349 123.547C56.5508 123.263 56.3907 122.878 56.3897 122.476V116.6C56.3897 115.765 57.0719 115.084 57.9058 115.084H63.782C64.6159 115.084 65.2981 115.765 65.2981 116.6L65.299 122.476ZM65.299 109.681C65.2979 110.083 65.1378 110.468 64.8537 110.752C64.5696 111.036 64.1846 111.196 63.7828 111.198H57.9058C57.5041 111.196 57.119 111.036 56.8349 110.752C56.5508 110.468 56.3907 110.083 56.3897 109.681V103.805C56.3897 102.97 57.0719 102.289 57.9058 102.289H63.782C64.6159 102.289 65.2981 102.97 65.2981 103.805L65.299 109.681ZM65.299 96.4121C65.2979 96.8139 65.1378 97.1989 64.8537 97.483C64.5696 97.7671 64.1846 97.9272 63.7828 97.9283H57.9058C57.5041 97.9272 57.119 97.7671 56.8349 97.483C56.5508 97.1989 56.3907 96.8139 56.3897 96.4121V90.536C56.3897 89.7012 57.0719 89.019 57.9058 89.019H63.782C64.6159 89.019 65.2981 89.7012 65.2981 90.536L65.299 96.4121ZM79.8228 109.681C79.8217 110.083 79.6616 110.468 79.3775 110.752C79.0934 111.036 78.7084 111.196 78.3066 111.198H72.4305C72.0286 111.197 71.6435 111.037 71.3594 110.753C71.0752 110.468 70.9152 110.083 70.9143 109.681V103.805C70.9143 102.97 71.5966 102.289 72.4305 102.289H78.3066C79.1406 102.289 79.8228 102.97 79.8228 103.805V109.681ZM79.8228 96.4121C79.8217 96.8139 79.6616 97.1989 79.3775 97.483C79.0934 97.7671 78.7084 97.9272 78.3066 97.9283H72.4305C72.0287 97.9272 71.6437 97.7671 71.3596 97.483C71.0755 97.1989 70.9154 96.8139 70.9143 96.4121V90.536C70.9143 89.7012 71.5966 89.019 72.4305 89.019H78.3066C79.1406 89.019 79.8228 89.7012 79.8228 90.536V96.4121Z" fill="#666766"/>
<path d="M68.0435 73.0338C69.2948 73.0338 70.3182 72.4393 70.3182 71.7119V66.7886C70.3182 66.0621 69.2948 65.4668 68.0435 65.4668C66.793 65.4668 65.7688 66.0613 65.7688 66.7886V71.7119C65.7688 72.4384 66.7922 73.0338 68.0435 73.0338Z" fill="#666766"/>
<path d="M126.329 55.8172C126.672 54.9498 126.847 54.0256 126.847 53.093C126.847 48.1513 122.12 44.4255 115.85 44.4255H113.589C113.683 43.987 113.736 43.5347 113.736 43.0685V35.5022C113.733 31.3971 110.007 28.3013 105.068 28.3013C100.126 28.3013 96.4005 31.3984 96.4005 35.5047V43.0697C96.4005 43.5359 96.4547 43.9883 96.5479 44.4267H94.1527C87.8829 44.4267 83.1541 48.1526 83.1541 53.0943C83.1541 54.0544 83.3368 54.9679 83.672 55.8184C78.4405 56.6614 74.4274 61.1948 74.4274 66.662V130.703C74.4274 136.767 79.3615 141.701 85.4259 141.701H124.58C130.646 141.701 135.579 136.767 135.579 130.703V66.662C135.575 61.1948 131.563 56.6614 126.329 55.8172Z" fill="#e79204"/>
<path d="M94.1502 56.5896H115.85C119.053 56.5896 121.675 55.0171 121.675 53.0944C121.675 51.1729 119.054 49.6004 115.85 49.5991H94.1502C90.946 49.5991 88.324 51.1716 88.324 53.0944C88.324 55.0159 90.946 56.5896 94.1502 56.5896Z" fill="#666766"/>
<path d="M124.578 60.8369H85.4221C83.8785 60.8416 82.3994 61.4569 81.308 62.5486C80.2165 63.6403 79.6015 65.1195 79.5972 66.6632V130.704C79.6018 132.247 80.217 133.727 81.3083 134.818C82.3997 135.91 83.8786 136.525 85.4221 136.53H109.478V112.625C109.478 111.343 110.526 110.294 111.808 110.294H120.837C122.118 110.294 123.167 111.343 123.167 112.625V135.016C123.167 135.064 123.157 135.108 123.154 135.154V136.526H124.578C126.122 136.522 127.601 135.906 128.693 134.815C129.784 133.723 130.399 132.244 130.404 130.7V66.6619C130.402 63.4577 127.781 60.8369 124.578 60.8369ZM100.85 121.072C100.848 121.69 100.602 122.281 100.165 122.718C99.7288 123.155 99.1372 123.401 98.5198 123.402H89.4894C88.8721 123.401 88.2804 123.155 87.8439 122.718C87.4073 122.281 87.1613 121.69 87.1597 121.072V112.043C87.1597 110.761 88.208 109.714 89.4894 109.714H98.5186C99.8 109.714 100.848 110.761 100.848 112.043L100.85 121.072ZM100.85 101.413C100.848 102.03 100.602 102.622 100.165 103.058C99.7288 103.495 99.1372 103.741 98.5198 103.742H89.4894C88.8721 103.741 88.2804 103.495 87.8439 103.058C87.4073 102.622 87.1613 102.03 87.1597 101.413V92.3835C87.1597 91.1009 88.208 90.0538 89.4894 90.0538H98.5186C99.8 90.0538 100.848 91.1009 100.848 92.3835L100.85 101.413ZM100.85 81.0234C100.848 81.6408 100.602 82.2324 100.165 82.6689C99.7288 83.1055 99.1372 83.3515 98.5198 83.3531H89.4894C88.8721 83.3515 88.2804 83.1055 87.8439 82.6689C87.4073 82.2324 87.1613 81.6408 87.1597 81.0234V71.9942C87.1597 70.7115 88.208 69.6632 89.4894 69.6632H98.5186C99.8 69.6632 100.848 70.7115 100.848 71.9942L100.85 81.0234ZM123.167 101.413C123.165 102.03 122.919 102.622 122.483 103.058C122.046 103.495 121.454 103.741 120.837 103.742H111.808C111.19 103.741 110.599 103.495 110.162 103.059C109.725 102.622 109.479 102.03 109.478 101.413V92.3835C109.478 91.1009 110.526 90.0538 111.808 90.0538H120.837C122.118 90.0538 123.167 91.1009 123.167 92.3835V101.413ZM123.167 81.0234C123.165 81.6408 122.919 82.2324 122.483 82.6689C122.046 83.1055 121.454 83.3515 120.837 83.3531H111.808C111.19 83.3515 110.599 83.1055 110.162 82.6689C109.726 82.2324 109.48 81.6408 109.478 81.0234V71.9942C109.478 70.7115 110.526 69.6632 111.808 69.6632H120.837C122.118 69.6632 123.167 70.7115 123.167 71.9942V81.0234Z" fill="#666766"/>
<path d="M105.067 45.1009C106.99 45.1009 108.562 44.1874 108.562 43.0698V35.5048C108.562 34.3884 106.99 33.4736 105.067 33.4736C103.145 33.4736 101.572 34.3871 101.572 35.5048V43.0698C101.572 44.1862 103.144 45.1009 105.067 45.1009Z" fill="#666766"/>
</g>
</g>
<defs>
<clipPath id="clip0_115_90">
<rect width="200" height="200" fill="white"/>
</clipPath>
<clipPath id="clip1_115_90">
<rect width="126" height="126" fill="white" transform="translate(42 22)"/>
</clipPath>
</defs>
</svg>
