<svg width="200" height="200" viewBox="0 0 200 200" fill="none" xmlns="http://www.w3.org/2000/svg">
<path d="M132 164C136.6 164 140.2 160.4 140.2 156V69.6001C140.2 65.2001 136.6 61.6001 132.2 61.6001H132C127.6 61.6001 124 65.2001 124 69.6001V156C124 160.4 127.6 164 132 164Z" fill="#E0E0E0"/>
<path d="M100 164C104.6 164 108.2 160.4 108.2 156V69.6001C108.2 65.2001 104.6 61.6001 100.2 61.6001H100C95.6 61.6001 92 65.2001 92 69.6001V156C92 160.4 95.6 164 100 164Z" fill="#E0E0E0"/>
<path d="M67.8001 164C72.4001 164 76 160.4 76 156V69.6001C76 65.2001 72.4 61.6001 68 61.6001H67.8001C63.4001 61.6001 59.8 65.2001 59.8 69.6001V156C59.8 160.4 63.4001 164 67.8001 164Z" fill="#E0E0E0"/>
<path d="M43.8 55.6001V162.2C43.8 172 51.8 180 61.6 180H138.4C148.2 180 156.2 172 156.2 162.2V51.6001H43.8V55.6001ZM124 69.6001C124 65.2001 127.6 61.6001 132 61.6001H132.2C136.6 61.6001 140.2 65.2001 140.2 69.6001V156C140.2 160.4 136.6 164 132.2 164H132C127.6 164 124 160.4 124 156V69.6001ZM92 69.6001C92 65.2001 95.6 61.6001 100 61.6001C104.4 61.6001 108 65.2001 108 69.6001V156C108 160.4 104.4 164 100 164C95.6 164 92 160.4 92 156V69.6001ZM59.8 69.6001C59.8 65.2001 63.4001 61.6001 67.8001 61.6001H68C72.4 61.6001 76 65.2001 76 69.6001V156C76 160.4 72.4 164 68 164H67.8001C63.4001 164 59.8 160.4 59.8 156V69.6001Z" fill="#666666"/>
<path d="M88.2 22.4H112L119.6 35.6H134L126.4 22.4L121.4 14C120 11.6 117.4 10 114.6 10H85.4C82.6 10 80 11.6 78.6 14L73.6 22.6L66 35.8H80.4L88.2 22.4Z" fill="#333333"/>
<path d="M27.8 43.6001C27.8 48.2001 31.4 51.8001 35.8 51.8001H164.4C168.8 51.8001 172.4 48.2001 172.4 43.8001V43.6001C172.4 39.2001 168.8 35.6001 164.4 35.6001H35.8C31.4 35.6001 27.8 39.2001 27.8 43.6001Z" fill="#010101"/>
</svg>
