<svg width="189" height="188" viewBox="0 0 189 188" fill="none" xmlns="http://www.w3.org/2000/svg">
<path d="M161.6 99.658C160.8 99.058 159.8 98.658 158.8 98.258C167.2 92.658 172.4 82.458 170.4 71.258C168.4 59.858 158.8 50.858 147.4 49.658C131.2 47.858 117.6 60.458 117.6 76.058C117.6 85.458 122.4 93.458 129.6 98.258C128.6 98.658 127.8 99.058 126.8 99.658C116.4 105.658 109.4 116.858 109.4 129.658V152.458C109.4 159.058 114.8 164.458 121.4 164.458H167C173.6 164.458 179 159.058 179 152.458V129.858C179 116.858 172 105.658 161.6 99.658Z" fill="#BAC914" stroke="#52525B" stroke-width="6" stroke-miterlimit="10"/>
<path d="M26.4 99.658C27.2 99.058 28.2 98.658 29.2 98.258C20.8 92.658 15.6 82.458 17.6 71.258C19.6 59.858 29.2 50.858 40.6 49.658C56.8 47.858 70.4 60.458 70.4 76.058C70.4 85.458 65.6 93.458 58.4 98.258C59.4 98.658 60.2 99.058 61.2 99.658C71.6 105.658 78.6 116.858 78.6 129.658V152.458C78.6 159.058 73.2 164.458 66.6 164.458H21C14.4 164.458 9 159.058 9 152.458V129.858C9 116.858 16 105.658 26.4 99.658Z" fill="#BAC914" stroke="#52525B" stroke-width="6" stroke-miterlimit="10"/>
<path d="M118.2 83.458C117 82.858 115.8 82.258 114.4 81.658C126 74.058 133.2 59.858 130.4 44.258C127.6 28.458 114.4 16.058 98.4 14.258C76.2 11.658 57.2 29.058 57.2 50.858C57.2 63.658 63.8 75.058 73.8 81.658C72.6 82.258 71.2 82.858 70 83.458C55.6 91.658 46 107.258 46 125.058V156.458C46 165.658 53.4 173.058 62.6 173.058H125.4C134.6 173.058 142 165.658 142 156.458V125.058C142.4 107.258 132.6 91.658 118.2 83.458Z" fill="#BAC914" stroke="#52525B" stroke-width="6" stroke-miterlimit="10"/>
</svg>
