<svg width="32" height="31" viewBox="0 0 32 31" fill="none" xmlns="http://www.w3.org/2000/svg">
<path d="M0.33667 24.6563V27.1582C0.33667 29.2266 5.53828 30.9082 11.9496 30.9082C18.3609 30.9082 23.5625 29.2266 23.5625 27.1582V24.6563C21.0645 26.3614 16.498 27.1582 11.9496 27.1582C7.40119 27.1582 2.83465 26.3614 0.33667 24.6563ZM19.6915 8.40823C26.1028 8.40823 31.3044 6.72659 31.3044 4.65823C31.3044 2.58987 26.1028 0.908234 19.6915 0.908234C13.2802 0.908234 8.07861 2.58987 8.07861 4.65823C8.07861 6.72659 13.2802 8.40823 19.6915 8.40823ZM0.33667 18.5098V21.5332C0.33667 23.6016 5.53828 25.2832 11.9496 25.2832C18.3609 25.2832 23.5625 23.6016 23.5625 21.5332V18.5098C21.0645 20.502 16.4919 21.5332 11.9496 21.5332C7.40723 21.5332 2.83465 20.502 0.33667 18.5098ZM25.498 19.1543C28.9637 18.5039 31.3044 17.2969 31.3044 15.9082V13.4063C29.9012 14.3672 27.8387 15.0235 25.498 15.4278V19.1543ZM11.9496 10.2832C5.53828 10.2832 0.33667 12.3809 0.33667 14.9707C0.33667 17.5606 5.53828 19.6582 11.9496 19.6582C18.3609 19.6582 23.5625 17.5606 23.5625 14.9707C23.5625 12.3809 18.3609 10.2832 11.9496 10.2832ZM25.2137 13.5821C28.8427 12.9492 31.3044 11.7071 31.3044 10.2832V7.78128C29.1572 9.25198 25.4677 10.043 21.5847 10.2305C23.3689 11.0684 24.6814 12.1934 25.2137 13.5821Z" fill="#A47659"/>
</svg>
