<svg width="11" height="11" viewBox="0 0 11 11" fill="none" xmlns="http://www.w3.org/2000/svg">
<path d="M5.4051 10.8102C2.45715 10.8102 0.0675049 8.42056 0.0675049 5.47261C0.0675049 2.52465 2.45715 0.13501 5.4051 0.13501C8.35306 0.13501 10.7427 2.52465 10.7427 5.47261C10.7427 8.42056 8.35306 10.8102 5.4051 10.8102ZM5.4051 9.74268C6.5376 9.74268 7.62371 9.2928 8.4245 8.49201C9.2253 7.69121 9.67518 6.6051 9.67518 5.47261C9.67518 4.34011 9.2253 3.254 8.4245 2.45321C7.62371 1.65241 6.5376 1.20253 5.4051 1.20253C4.27261 1.20253 3.1865 1.65241 2.3857 2.45321C1.58491 3.254 1.13502 4.34011 1.13502 5.47261C1.13502 6.6051 1.58491 7.69121 2.3857 8.49201C3.1865 9.2928 4.27261 9.74268 5.4051 9.74268ZM4.87134 2.80381H5.93886V3.87133H4.87134V2.80381ZM4.87134 4.93885H5.93886V8.1414H4.87134V4.93885Z" fill="#A47659"/>
</svg>
