<svg width="200" height="200" viewBox="0 0 200 200" fill="none" xmlns="http://www.w3.org/2000/svg">
<path d="M83.1999 37.8002L22.5999 142.8C15.1999 155.8 24.3999 172 39.3999 172H160.6C175.6 172 184.8 155.8 177.4 142.8L116.8 37.8002C109.4 25.0002 90.5999 25.0002 83.1999 37.8002Z" stroke="#A47659" stroke-width="18" stroke-miterlimit="10"/>
<path d="M100 149.6C105.965 149.6 110.8 144.765 110.8 138.8C110.8 132.835 105.965 128 100 128C94.0353 128 89.2 132.835 89.2 138.8C89.2 144.765 94.0353 149.6 100 149.6Z" fill="#A47659"/>
<path d="M110.8 87.6003C110.8 99.6003 107.6 110.2 104.6 117.4C103 121.6 97 121.6 95.2 117.4C92.2 110.2 89 99.4003 89 87.6003C89 69.8003 93.8 63.8003 99.8 63.8003C105.8 63.8003 110.8 69.8003 110.8 87.6003Z" fill="#A47659"/>
</svg>
