<svg width="8" height="8" viewBox="0 0 8 8" fill="none" xmlns="http://www.w3.org/2000/svg">
<g clip-path="url(#clip0_401_805)">
<path d="M6.35 1.63664C6.04436 1.32801 5.68034 1.0833 5.27917 0.916765C4.878 0.75023 4.4477 0.665205 4.01333 0.666644C2.19333 0.666644 0.710001 2.14998 0.710001 3.96998C0.710001 4.55331 0.863334 5.11998 1.15 5.61998L0.683334 7.33331L2.43333 6.87331C2.91667 7.13664 3.46 7.27664 4.01333 7.27664C5.83333 7.27664 7.31667 5.79331 7.31667 3.97331C7.31667 3.08998 6.97333 2.25998 6.35 1.63664ZM4.01333 6.71664C3.52 6.71664 3.03667 6.58331 2.61333 6.33331L2.51333 6.27331L1.47333 6.54664L1.75 5.53331L1.68333 5.42998C1.40918 4.99233 1.26364 4.4864 1.26333 3.96998C1.26333 2.45664 2.49667 1.22331 4.01 1.22331C4.74333 1.22331 5.43333 1.50998 5.95 2.02998C6.20587 2.2846 6.40864 2.58749 6.54654 2.92109C6.68444 3.25468 6.75473 3.61234 6.75333 3.97331C6.76 5.48664 5.52667 6.71664 4.01333 6.71664ZM5.52 4.66331C5.43667 4.62331 5.03 4.42331 4.95667 4.39331C4.88 4.36664 4.82667 4.35331 4.77 4.43331C4.71333 4.51664 4.55667 4.70331 4.51 4.75664C4.46333 4.81331 4.41333 4.81998 4.33 4.77664C4.24667 4.73664 3.98 4.64664 3.66667 4.36664C3.42 4.14664 3.25667 3.87664 3.20667 3.79331C3.16 3.70998 3.2 3.66664 3.24333 3.62331C3.28 3.58664 3.32667 3.52664 3.36667 3.47998C3.40667 3.43331 3.42333 3.39664 3.45 3.34331C3.47667 3.28664 3.46333 3.23998 3.44333 3.19998C3.42333 3.15998 3.25667 2.75331 3.19 2.58664C3.12333 2.42664 3.05333 2.44664 3.00333 2.44331H2.84333C2.78667 2.44331 2.7 2.46331 2.62333 2.54664C2.55 2.62998 2.33667 2.82998 2.33667 3.23664C2.33667 3.64331 2.63333 4.03664 2.67333 4.08998C2.71333 4.14664 3.25667 4.97998 4.08333 5.33664C4.28 5.42331 4.43333 5.47331 4.55333 5.50998C4.75 5.57331 4.93 5.56331 5.07333 5.54331C5.23333 5.51998 5.56333 5.34331 5.63 5.14998C5.7 4.95664 5.7 4.79331 5.67667 4.75664C5.65333 4.71998 5.60333 4.70331 5.52 4.66331Z" fill="#BAC914"/>
</g>
<defs>
<clipPath id="clip0_401_805">
<rect width="8" height="8" fill="white"/>
</clipPath>
</defs>
</svg>
